<?xml version="1.0" encoding="UTF-8"?>
<!DOCTYPE svg PUBLIC "-//W3C//DTD SVG 1.1//EN" "http://www.w3.org/Graphics/SVG/1.1/DTD/svg11.dtd">
<!-- Creator: CorelDRAW X6 -->
<svg xmlns="http://www.w3.org/2000/svg" xml:space="preserve" width="6.70423in" height="5.62032in" version="1.1" style="shape-rendering:geometricPrecision; text-rendering:geometricPrecision; image-rendering:optimizeQuality; fill-rule:evenodd; clip-rule:evenodd"
viewBox="0 0 3263 2735"
 xmlns:xlink="http://www.w3.org/1999/xlink">
 <defs>
  <style type="text/css">
   <![CDATA[
    .str0 {stroke:#1C5CA0;stroke-width:1.91604}
    .str2 {stroke:#7C3979;stroke-width:1.91604}
    .str1 {stroke:#006633;stroke-width:1.91604}
    .fil3 {fill:#1C5CA0}
    .fil7 {fill:#1B84BB}
    .fil0 {fill:#1C5CA0;fill-rule:nonzero}
    .fil2 {fill:#7C3979;fill-rule:nonzero}
    .fil8 {fill:#F59D31;fill-rule:nonzero}
    .fil1 {fill:#006633;fill-rule:nonzero}
    .fil6 {fill:url(#id0)}
    .fil4 {fill:url(#id1)}
    .fil5 {fill:url(#id2)}
   ]]>
  </style>
  <linearGradient id="id0" gradientUnits="userSpaceOnUse" x1="1631.2" y1="834.881" x2="1642.94" y2="1163.53">
   <stop offset="0" style="stop-color:#AE6FAB"/>
   <stop offset="0.831373" style="stop-color:#D192BE"/>
   <stop offset="1" style="stop-color:#F5B5D2"/>
  </linearGradient>
  <linearGradient id="id1" gradientUnits="userSpaceOnUse" x1="1412.39" y1="871.999" x2="1386.86" y2="1106.06">
   <stop offset="0" style="stop-color:#EF7F1A"/>
   <stop offset="0.678431" style="stop-color:#F7B60D"/>
   <stop offset="1" style="stop-color:#FFED00"/>
  </linearGradient>
  <linearGradient id="id2" gradientUnits="userSpaceOnUse" x1="1522.92" y1="877.979" x2="1490.38" y2="1089.48">
   <stop offset="0" style="stop-color:#60B746"/>
   <stop offset="0.678431" style="stop-color:#88C133"/>
   <stop offset="1" style="stop-color:#B0CB1F"/>
  </linearGradient>
 </defs>
 <g id="Layer_x0020_1">
  <metadata id="CorelCorpID_0Corel-Layer"/>
  <g id="_442788544">
   <path class="fil0 str0" d="M35 2065l6 1c5,0 10,-2 16,-6 12,-8 21,-13 25,-14 3,0 6,1 8,3 5,5 7,10 7,16l-1 10 -3 20 -1 19 -4 32c-2,13 -3,23 -3,31l0 13c0,3 1,8 3,14l7 36c3,12 10,21 19,26 9,5 19,8 29,8l10 -1 11 -2c10,-2 18,-4 24,-7 6,-3 12,-7 18,-14 7,-8 12,-18 14,-32l1 -9 3 -12 3 -22 0 -19 0 -16 0 -13c0,-3 0,-6 0,-9 1,-3 2,-5 2,-6l0 -6 0 -6 0 -13 0 -13c0,-8 1,-14 3,-19 2,-5 5,-8 11,-10l8 -2 8 -1c7,0 13,1 19,4 6,3 11,7 16,13 5,6 7,13 7,19 0,5 -1,11 -3,17l-9 32c0,3 -4,22 -13,57 -3,14 -5,26 -5,36l0 33c0,9 1,22 3,40 0,5 4,16 12,34 3,7 6,15 10,23 2,4 3,6 3,6l-3 0c-4,-3 -8,-8 -13,-14 -2,-2 -5,-3 -9,-3 -5,0 -9,1 -12,3 -3,2 -5,6 -5,10l2 19 -9 -22c-7,-21 -13,-32 -18,-33l-10 -2c-3,0 -6,1 -9,2l-8 4 -19 11c-3,1 -10,6 -22,14 -8,6 -15,10 -22,12 -7,2 -15,3 -22,3 -18,0 -37,-7 -56,-21 -9,-7 -17,-16 -24,-29l-15 -36c-5,-14 -10,-34 -15,-60 -4,-25 -6,-47 -6,-66 0,-6 0,-11 0,-15 0,-4 1,-11 2,-20 0,-4 1,-9 2,-14 1,-5 2,-10 4,-15 5,-16 12,-25 21,-25 3,0 5,0 6,1z"/>
   <path class="fil0 str0" d="M499 2089c10,0 19,2 28,5 9,3 20,8 31,16 23,15 35,30 35,46 0,8 -4,14 -11,19 -7,5 -15,8 -25,8 -16,0 -26,-9 -31,-26 -5,-17 -13,-26 -23,-26 -10,0 -17,4 -23,13 -2,3 -3,8 -5,14 0,12 12,24 37,37 40,19 63,31 70,36 25,18 38,41 38,68 0,26 -19,52 -58,79 -27,18 -63,36 -110,54 -37,13 -58,20 -63,20 2,-8 16,-23 42,-44l70 -56c25,-21 37,-36 37,-45 0,-26 -12,-48 -37,-65l-70 -38c-25,-14 -38,-29 -38,-46l6 -18c6,-14 16,-25 29,-34 18,-12 42,-18 71,-18zm78 152l0 24 4 -4 0 -20 -3 6 -1 6 0 -12zm-20 106c-1,3 -4,6 -8,10l-11 10 16 0 8 -6 8 -5 0 -8 -8 1c-2,0 -3,0 -4,-1zm-58 22l16 -5 -4 1 -11 4zm94 -300l-4 8 4 -8zm-168 75l0 16 0 4 0 -19zm168 129l-4 -8 4 8zm-67 102l-12 0 12 0z"/>
   <path class="fil1 str1" d="M759 2192l-2 10c0,4 1,8 4,11 3,3 6,5 12,5l17 -3c6,-1 12,-3 16,-6l23 -16 34 -14c9,-3 21,-6 36,-10l10 0c7,0 17,1 30,3l23 2c4,0 6,-1 7,-3l-1 -2c-1,-1 -2,-2 -2,-3l-7 -5 -10 -5c-4,-2 -10,-4 -17,-5l-14 -2 -6 0 -22 0 -15 0c-14,0 -27,2 -37,5 -13,3 -32,11 -56,25l-14 6c-3,1 -5,3 -7,7zm194 -139l-2 -3c2,0 3,-1 4,-3l4 -4 8 -4c5,-2 9,-4 10,-5 -1,-1 -8,2 -21,7l-15 7 1 -3 3 -3 -15 7 -10 5 9 -8 10 -8c-4,1 -9,3 -16,6 -5,3 -9,6 -13,6l-9 1 -8 0 -16 -1 -13 -1 -10 0c-4,0 -9,-1 -14,-2l-21 -3 -13 1c-4,0 -12,3 -24,10l-15 6 -13 5 -13 2 -18 3c-3,0 -5,0 -7,0 -2,0 -5,1 -11,2 3,-5 5,-10 5,-13 0,-4 -2,-8 -6,-12 -4,-3 -9,-6 -15,-7 -6,-1 -12,1 -17,5l-6 7 -6 10 -3 12c0,4 2,12 6,23 2,6 4,12 5,17l5 19c2,8 4,15 5,22l2 19 -2 21 0 15 0 23 -2 36 0 14 0 13 0 13c0,5 1,9 2,13l6 20 3 6c1,1 2,3 3,6 2,3 3,5 4,6 5,8 13,15 24,22l11 5 15 4 24 2c9,0 20,-2 32,-6l22 -6 29 -6 20 -4 33 -3 40 -1 12 0 24 0 39 -2 7 2 4 -2 -5 -3 -1 -1 13 1 19 0c8,0 14,-1 18,-2l-12 -4 -5 0 -7 -2 15 -3c9,-1 14,-2 16,-4l-4 -2c-1,0 -3,-1 -4,-2 -1,-2 -3,-3 -6,-4l-4 1 -5 1c-10,0 -21,-2 -34,-6 -27,-9 -45,-14 -55,-14 -13,0 -28,1 -44,4l-28 5 -48 8 -26 0 -43 -1 -8 0 -6 0c-5,0 -8,-1 -11,-3 -3,-2 -5,-7 -7,-15 0,-8 -1,-13 -2,-16l-7 -16c-1,-2 -2,-5 -3,-9 -2,-4 -2,-8 -2,-11 0,-4 1,-8 2,-14l4 -15 2 -10c0,-5 -1,-10 -2,-16 -1,-5 -3,-11 -4,-17 -1,-6 -2,-11 -2,-14l0 -32 0 -8 0 -7 1 -11c1,-4 3,-7 6,-10 4,-5 9,-8 16,-9l21 -4 20 -4 17 -3 45 -9 50 -4 8 -2 7 -4 19 -10 5 -1 6 0 5 0 10 -1 11 -3 -13 -2c-5,0 -8,-1 -9,-4zm7 -5l4 -4 4 -2 3 3 3 -1 4 -2 4 -1 3 0 -2 2 -16 9c-2,1 -6,3 -10,3 -2,0 -4,-1 -5,-3 1,-1 2,-2 2,-2 1,0 2,-1 4,-2zm-257 71l-6 11 -3 5c-2,-1 -3,-2 -4,-4 0,-2 -2,-3 -4,-3 -3,-3 -6,-5 -8,-6l0 5 3 4 3 4 2 5 0 17 1 8c0,-3 0,-6 0,-7l3 -10c2,-4 3,-7 5,-8l-3 18 -4 17 3 -6c1,-3 3,-5 5,-7 2,-1 3,0 3,3 0,3 -1,7 -3,12l-2 4 0 3 0 2 3 -8 5 -12 3 -12 1 -17c0,-8 0,-14 -1,-18l-2 0zm-1 15c1,2 1,5 1,11l0 9 -3 10 -1 -5 3 -25zm96 222c1,6 4,9 9,10 3,1 5,0 6,-1l11 -7 5 -1 4 0 12 1 10 1 18 0 18 0 24 0 8 0 5 -1 -6 -1 -7 0 -6 0 -12 0 -13 0 -5 0 -5 0 -6 -1 24 -4 24 -2c-11,0 -17,-1 -17,-2l0 -3 -18 -2c-5,0 -9,0 -11,0 -3,0 -7,1 -14,3 -18,3 -27,5 -28,6l-4 0 -9 0 -9 -1c-6,0 -9,2 -9,7zm55 -6l3 -1 4 -1 10 -3 1 1 1 1c-2,2 -4,3 -5,3 -3,0 -6,0 -7,1 -2,0 -4,0 -5,1l-3 -1z"/>
   <path class="fil0 str0" d="M1148 2077c14,0 24,3 32,10 6,6 9,14 9,24 -6,12 -11,27 -16,46 -4,19 -6,41 -6,68 0,6 -1,11 -4,16 -6,8 -9,28 -9,60 0,20 3,33 10,40 5,5 16,7 31,7l12 0 13 0c22,0 48,-4 78,-12 24,-6 40,-12 48,-17l32 0 0 9 -10 4 -3 3c0,2 -3,5 -10,9l-23 3c-14,1 -27,5 -40,12l-25 23c-12,6 -27,9 -47,9 -20,0 -42,10 -65,30 -23,20 -39,30 -48,30 -3,0 -7,-5 -13,-15 -6,-10 -9,-19 -9,-27l2 -8 8 -36 1 -9 -3 -31c-2,-15 -3,-28 -3,-37l0 -8 0 -10 10 -50 4 -29c0,-12 -6,-27 -17,-43 -5,-9 -8,-16 -8,-23 0,-14 7,-26 20,-36 13,-10 30,-15 49,-15zm88 293l-2 -2c-5,-1 -12,-2 -21,-2l-7 2c-2,0 -3,0 -4,0l3 2 17 3 6 0 8 -3z"/>
   <path class="fil0 str0" d="M1455 2221l0 -5 -1 -10 -1 -17 0 -6c0,-3 1,-7 2,-10l1 -10 0 -7 0 -7 -1 -9 -2 -7 -3 -6c-1,-3 -4,-5 -8,-6l-9 2 -10 3 -8 3 -5 6 -2 6c0,2 1,4 4,5l9 7 0 3 -21 -4c-3,-1 -6,-3 -9,-6l-3 -12 2 -10c1,-5 6,-11 16,-18l32 -22c3,-9 7,-15 10,-18 3,-3 7,-6 11,-6 3,0 8,2 13,6l7 6 78 -12c34,-5 55,-7 64,-7l41 0c11,0 26,2 44,5l33 7c12,3 23,8 32,15l10 7c4,3 7,8 9,15l2 13 -1 10 -6 9c-2,3 -7,8 -16,15l-12 7c1,-2 2,-3 3,-4 5,-5 8,-13 8,-22 0,-6 -1,-12 -4,-17 -3,-5 -8,-9 -16,-13l-11 -2 -10 -3 -16 -4 -23 -4 -18 -1 -28 2 -27 2 -19 0 -17 0c-7,0 -12,0 -16,0 -3,0 -9,1 -16,3l-10 2 -6 2 -22 8 -20 6c-6,2 -11,7 -14,13l0 4 -1 4 1 8 0 9 0 14c0,6 0,10 0,11l4 10c5,8 12,12 22,14 4,1 14,1 30,1l6 -1 9 -4c6,-3 10,-5 12,-5l5 2 4 1 9 0 7 0c2,0 4,0 6,0 3,-1 4,-1 6,-1l16 -3 23 -3 6 0 3 0 -15 4 -24 6 -13 3 16 -2 16 -1 16 1 5 1 2 1 -2 1 -6 0c-10,0 -17,1 -22,2 -6,1 -9,2 -10,3l3 1 11 0 12 0c2,0 3,1 4,1l-70 17 -28 6 -25 6 -14 5 -10 3c-2,0 -4,1 -7,3 -3,2 -5,5 -6,8l-1 10 0 7 0 6 0 19 0 17 -3 26 0 5c0,1 0,2 0,3 0,1 0,2 0,3 0,3 -1,6 -3,12l-3 13c0,4 0,7 -1,9 0,6 1,11 2,15 1,4 5,9 11,15 6,6 10,12 11,18l1 13c0,6 -1,11 -2,14 -1,4 -3,7 -7,11 -7,7 -16,10 -26,10 -10,0 -19,-3 -27,-10 -6,-5 -9,-11 -10,-18l-1 -12c0,-5 0,-8 1,-10l4 -10c1,-3 2,-5 3,-6l7 -9c3,-4 4,-9 5,-15l2 -16 0 -10 0 -11 0 -6 0 -7 5 -26 5 -48 0 -13c0,-5 0,-9 -1,-11l0 -10 3 -11z"/>
   <path class="fil0 str0" d="M1862 2081c11,2 20,4 26,6 18,6 26,13 26,22 0,9 3,16 9,19 5,3 12,4 20,4l11 0c5,0 9,0 11,-1 2,12 11,24 27,39 16,14 26,31 29,51 12,-5 20,-20 25,-45 5,-25 9,-41 14,-48 12,-18 33,-26 65,-26 10,0 17,6 22,19 4,11 6,22 6,34 0,16 -4,30 -13,40 -10,11 -16,19 -18,24l-2 22 -4 29 -8 49c-1,8 -3,13 -4,18 -1,4 -3,9 -5,14 -6,10 -12,19 -17,28 -5,9 -9,16 -13,24 -9,16 -14,30 -15,41l-5 1 -4 4 0 -9 -11 11c-5,3 -9,6 -13,11l29 -98c2,-7 4,-13 6,-19 2,-6 4,-14 6,-23 4,-16 6,-32 6,-47 0,-1 0,-3 0,-5 -1,-4 -1,-6 -2,-8l-1 -11 0 -13 3 -13 -11 0c-3,0 -8,4 -13,13 -7,13 -12,21 -14,23 -2,2 -4,5 -7,7 -3,2 -7,5 -12,8 -5,3 -8,6 -9,10 1,1 3,3 3,6 0,3 -2,8 -5,14 -2,-3 -6,-13 -13,-29l-22 -55c-1,-1 -4,-2 -10,-3 -4,0 -9,-3 -15,-8l-9 -14c-4,-6 -10,-11 -19,-14l17 26c2,4 3,9 3,15l0 9 0 9 0 3c0,25 -2,43 -6,55 -9,30 -14,55 -14,75l-17 -4 -14 -3c-3,0 -5,2 -8,5 -3,5 -7,9 -12,12l0 -8c6,-12 10,-20 12,-26l3 -9 1 -6 0 -6 0 -8 0 -45 0 -20c0,-5 0,-8 -1,-10 -2,-1 -4,-6 -7,-14l-3 -61 -26 -36c-7,-10 -10,-17 -10,-23 0,-8 3,-15 9,-20 6,-5 13,-8 22,-8zm89 41l-11 0c-4,0 -8,0 -11,1l0 -14 7 -1 3 -1 3 3 9 12z"/>
   <path class="fil2 str2" d="M2189 2395c-7,-5 -10,-12 -10,-20 0,-5 2,-13 6,-24 5,-12 9,-21 11,-27 2,-6 4,-12 5,-18l14 -126 13 -51c9,-29 23,-52 44,-68l24 -17c10,-6 16,-9 20,-9 2,0 4,2 5,6 0,6 1,12 2,17 1,5 4,10 8,16 10,15 15,26 17,34l7 27 7 31 7 25c5,16 7,30 7,40l0 11 -3 13 -5 23 -4 30 -1 23c0,7 1,16 3,27 0,3 2,8 5,16l10 22 -1 0 -5 -6 -2 -3 -5 -9c-3,-8 -5,-12 -7,-12 -2,0 -4,2 -5,6 0,5 2,10 6,13l-23 -31 0 6c0,5 1,10 3,16l5 6 -5 2c-3,0 -8,-9 -16,-26l8 27 -14 -27 -1 -38c8,-10 12,-21 12,-32 0,-8 -3,-17 -8,-26 -3,-5 -6,-10 -12,-13l-16 -9 -13 -8c-7,-4 -13,-6 -19,-7 -3,0 -7,1 -10,3 -3,2 -5,5 -5,9 0,3 3,11 10,24 3,7 5,12 5,16 0,10 -3,25 -9,45l-3 15 -1 13c0,5 1,11 3,19l3 16c0,6 -2,11 -6,17 -6,7 -14,10 -23,10 -13,0 -26,-5 -38,-15zm108 -301l-21 28c-8,19 -13,36 -17,51 -4,15 -6,27 -6,35l13 -10c11,-7 21,-10 31,-10 4,3 8,4 10,5 3,1 5,2 9,2l7 -1c3,-1 5,-7 5,-19 0,-14 -3,-30 -9,-47 -6,-17 -13,-28 -22,-34zm25 -1l3 0 7 10 4 9c3,8 6,15 10,20l-3 -1 -3 -1 -8 -12 -2 -1 1 4 0 1 -6 -6c-1,-1 -2,-3 -2,-5 0,-2 -2,-5 -7,-10l-3 -5 5 1c2,0 3,-1 4,-3zm29 56l-1 9 -1 9 0 8 3 6 -3 1 -2 -4 -5 -13 -2 -13c0,-3 -1,-5 -2,-8 -1,-3 -1,-4 0,-6l4 -1c5,0 9,3 9,10z"/>
   <path class="fil0 str0" d="M2579 2341l8 1c3,0 5,-1 8,-2l33 -18 16 -11 15 -10 21 -10c8,-3 14,-7 17,-11 4,-4 8,-11 12,-20l6 -13c2,-3 6,-8 11,-14 6,-6 10,-12 13,-18 3,-10 5,-18 5,-26l0 -9c0,-3 -1,-8 -3,-14 -1,-8 -3,-13 -5,-16 -1,-3 -2,-5 -3,-7 -1,-2 -3,-4 -5,-7 -4,-5 -9,-11 -17,-16 -3,-2 -15,-7 -38,-15l-12 -3 -16 -3 -20 -5 -23 -2 -23 2 -19 0c-6,0 -15,2 -27,5 -11,4 -18,5 -21,5 -3,0 -5,-1 -6,-4 0,-5 1,-9 4,-13 2,-4 7,-8 13,-11l6 -3 6 0 12 2 14 2 32 0 39 -2c6,0 11,0 16,0 5,0 10,1 16,2 7,1 19,3 35,6l45 10c16,4 28,13 36,25 3,4 5,8 8,13 2,5 4,10 6,16l2 17 0 21c0,17 -4,33 -12,48 -4,9 -15,23 -31,41 -6,7 -12,13 -20,19l-24 16 -25 10 -43 16 -34 12c-18,7 -27,12 -27,16 0,2 1,6 3,13 1,3 3,6 3,9 1,3 1,5 2,6l0 4c-2,6 -6,12 -14,17 -8,5 -15,8 -23,8 -8,0 -13,-3 -16,-10l-1 -4c0,-3 1,-7 2,-11 1,-4 2,-8 1,-11 -1,-1 -2,-3 -5,-3 -4,0 -13,4 -27,13 -14,9 -25,14 -32,16l-26 8 -16 4 -18 4 -25 6c-8,3 -12,8 -12,15 0,3 2,6 5,9 3,3 5,7 5,10 0,3 -1,5 -2,6l-7 6c-2,1 -6,3 -12,3 -4,0 -8,-1 -11,-3 -3,-2 -5,-4 -6,-8l-2 -10 1 -9c1,-4 2,-6 3,-8l7 -7c3,-3 6,-5 12,-6l23 -5 21 -8 30 -7c11,-2 21,-5 29,-10 6,-2 10,-4 12,-6l11 -7c8,-5 14,-11 18,-18 1,-2 8,-6 20,-11 8,-3 12,-11 12,-24l-3 -14 -4 -18 -4 -35 0 -39 0 -12 0 -16 2 -16 0 -6c0,-3 -1,-7 -2,-10 -1,-4 -4,-8 -9,-13 -5,-5 -8,-10 -9,-15l1 -11 5 -10 4 -4c5,-5 12,-7 19,-7l7 1c3,0 6,1 8,2 7,3 12,7 16,13 4,6 6,13 6,20l-1 7c-1,4 -4,8 -9,13 -3,3 -6,6 -7,9l-6 16 0 18 0 13 0 14 0 15c0,3 0,5 0,6 0,2 1,5 2,9l5 30 1 8 -1 14 -1 10c0,5 1,9 1,11 1,2 4,4 9,5zm178 -181c5,6 10,10 14,12 5,1 8,3 8,6 0,4 -1,7 -2,10l-5 10 0 5 0 8c0,5 -1,9 -2,12 -1,3 -3,7 -7,10l-8 8 -16 21 -26 23 -8 6 8 -7 16 -15 -7 3c3,-1 7,-6 14,-14l1 -4 -19 9 -4 0 9 -9 7 -6 5 -4 3 -3 3 -6 3 -9 5 -13 4 -16 1 -9 -1 -12c0,-5 0,-9 0,-11l0 -4 1 -1 3 2z"/>
   <path class="fil0 str0" d="M2942 2192l-2 10c0,4 1,8 4,11 3,3 6,5 12,5l17 -3c6,-1 12,-3 16,-6l23 -16 34 -14c9,-3 21,-6 36,-10l10 0c7,0 17,1 30,3l23 2c4,0 6,-1 7,-3l-1 -2c-1,-1 -2,-2 -2,-3l-7 -5 -10 -5c-4,-2 -10,-4 -17,-5l-14 -2 -6 0 -22 0 -15 0c-14,0 -27,2 -37,5 -13,3 -32,11 -56,25l-14 6c-3,1 -5,3 -7,7zm194 -139l-2 -3c2,0 3,-1 4,-3l4 -4 8 -4c5,-2 9,-4 10,-5 -1,-1 -8,2 -21,7l-15 7 1 -3 3 -3 -15 7 -10 5 9 -8 10 -8c-4,1 -9,3 -16,6 -5,3 -9,6 -13,6l-9 1 -8 0 -16 -1 -13 -1 -10 0c-4,0 -9,-1 -14,-2l-21 -3 -13 1c-4,0 -12,3 -24,10l-15 6 -13 5 -13 2 -18 3c-3,0 -5,0 -7,0 -2,0 -5,1 -11,2 3,-5 5,-10 5,-13 0,-4 -2,-8 -6,-12 -4,-3 -9,-6 -15,-7 -6,-1 -12,1 -17,5l-6 7 -6 10 -3 12c0,4 2,12 6,23 2,6 4,12 5,17l5 19c2,8 4,15 5,22l2 19 -2 21 0 15 0 23 -2 36 0 14 0 13 0 13c0,5 1,9 2,13l6 20 3 6c1,1 2,3 3,6 2,3 3,5 4,6 5,8 13,15 24,22l11 5 15 4 24 2c9,0 20,-2 32,-6l22 -6 29 -6 20 -4 33 -3 40 -1 12 0 24 0 39 -2 7 2 4 -2 -5 -3 -1 -1 13 1 19 0c8,0 14,-1 18,-2l-12 -4 -5 0 -7 -2 15 -3c9,-1 14,-2 16,-4l-4 -2c-1,0 -3,-1 -4,-2 -1,-2 -3,-3 -6,-4l-4 1 -5 1c-10,0 -21,-2 -34,-6 -27,-9 -45,-14 -55,-14 -13,0 -28,1 -44,4l-28 5 -48 8 -26 0 -43 -1 -8 0 -6 0c-5,0 -8,-1 -11,-3 -3,-2 -5,-7 -7,-15 0,-8 -1,-13 -2,-16l-7 -16c-1,-2 -2,-5 -3,-9 -2,-4 -2,-8 -2,-11 0,-4 1,-8 2,-14l4 -15 2 -10c0,-5 -1,-10 -2,-16 -1,-5 -3,-11 -4,-17 -1,-6 -2,-11 -2,-14l0 -32 0 -8 0 -7 1 -11c1,-4 3,-7 6,-10 4,-5 9,-8 16,-9l21 -4 20 -4 17 -3 45 -9 50 -4 8 -2 7 -4 19 -10 5 -1 6 0 5 0 10 -1 11 -3 -13 -2c-5,0 -8,-1 -9,-4zm7 -5l4 -4 4 -2 3 3 3 -1 4 -2 4 -1 3 0 -2 2 -16 9c-2,1 -6,3 -10,3 -2,0 -4,-1 -5,-3 1,-1 2,-2 2,-2 1,0 2,-1 4,-2zm-257 71l-6 11 -3 5c-2,-1 -3,-2 -4,-4 0,-2 -2,-3 -4,-3 -3,-3 -6,-5 -8,-6l0 5 3 4 3 4 2 5 0 17 1 8c0,-3 0,-6 0,-7l3 -10c2,-4 3,-7 5,-8l-3 18 -4 17 3 -6c1,-3 3,-5 5,-7 2,-1 3,0 3,3 0,3 -1,7 -3,12l-2 4 0 3 0 2 3 -8 5 -12 3 -12 1 -17c0,-8 0,-14 -1,-18l-2 0zm-1 15c1,2 1,5 1,11l0 9 -3 10 -1 -5 3 -25zm96 222c1,6 4,9 9,10 3,1 5,0 6,-1l11 -7 5 -1 4 0 12 1 10 1 18 0 18 0 24 0 8 0 5 -1 -6 -1 -7 0 -6 0 -12 0 -13 0 -5 0 -5 0 -6 -1 24 -4 24 -2c-11,0 -17,-1 -17,-2l0 -3 -18 -2c-5,0 -9,0 -11,0 -3,0 -7,1 -14,3 -18,3 -27,5 -28,6l-4 0 -9 0 -9 -1c-6,0 -9,2 -9,7zm55 -6l3 -1 4 -1 10 -3 1 1 1 1c-2,2 -4,3 -5,3 -3,0 -6,0 -7,1 -2,0 -4,0 -5,1l-3 -1z"/>
  </g>
  <path class="fil3" d="M900 1276c7,-6 24,-32 25,-33 1,-1 9,-13 51,-21 42,-9 85,-26 141,-29 56,-3 94,3 97,3 2,0 40,2 55,9 19,9 37,20 48,28 11,9 20,11 24,15 5,4 8,14 14,21 4,6 14,12 16,14 1,1 2,5 4,8 2,3 3,3 4,2 4,-3 3,-4 5,-4 1,0 2,3 1,4 -1,2 -6,6 -4,8 2,2 11,8 15,10 10,6 8,5 9,5 1,0 2,-1 4,-1 2,0 5,-1 6,-1 1,0 1,0 1,4 -1,3 5,5 -3,6 -5,1 -7,5 -3,7 2,1 9,3 8,10 -2,7 6,6 3,12 -3,6 -9,5 -16,10 -7,5 -6,5 -10,12 -4,6 14,28 11,33 -1,2 -5,8 -10,2 0,0 -4,-6 -5,-9 -2,-3 -4,-9 -10,-11 -6,-2 -4,1 -7,0 -3,-1 -4,-2 -4,-3 -1,-1 1,-5 -4,-7 -4,-2 -7,0 -13,3 -5,2 -8,5 -10,10 -1,2 1,9 0,14 -1,5 -5,9 -7,11 -2,1 -7,1 -11,0 -4,-1 -9,-4 -15,-6 -6,-2 -6,-4 -11,0 -5,3 -3,5 -7,8 -5,4 -14,-1 -13,6 0,4 0,10 -3,10 -3,1 -3,-1 -7,-3 -4,-1 -14,3 -18,5 -4,2 -6,-2 -16,-1 0,0 -31,5 -37,5 -6,0 -21,0 -23,0 -2,0 -5,4 -3,9 2,5 5,1 10,4 1,1 4,1 7,2 5,2 10,5 5,5 -4,0 -10,-1 -15,-2 -3,-1 -8,-2 -11,-3 -10,-4 -15,-5 -33,-9 -19,-3 -31,-5 -39,-5 -8,0 -9,1 -12,-1 -3,-2 -1,-5 -4,-7 -3,-2 -6,-3 -8,-1 -2,1 -1,5 -7,5 -5,0 -13,-1 -17,-2 -19,-5 -34,-11 -55,-26 -4,-3 -20,-7 -28,-13 -4,-2 -23,-14 -39,-25 -5,-3 -18,-17 -23,-16 -4,1 -5,3 -11,10 -4,5 -4,-5 -17,11 -13,16 -21,22 -28,31 -7,9 -14,14 -11,22 3,8 4,9 -1,13 -4,5 -2,4 -7,1 -5,-3 -10,-1 -9,5 1,6 4,8 1,13 -4,5 -3,9 -2,14 0,5 2,4 -1,7 -2,2 -3,-5 -10,-11 -7,-6 -2,-9 -4,-13 -3,-4 -11,-8 -5,-12 6,-4 7,-6 7,-12 0,-6 -3,-10 -1,-15 2,-5 7,-7 3,-11 -4,-4 -8,2 -12,9 -5,10 -13,21 -13,31 0,8 -3,15 -13,12 -20,-7 -7,-13 4,-27 7,-10 17,-24 20,-29 4,-7 5,-21 12,-32 6,-8 17,-25 24,-35 9,-14 7,-9 6,-18 0,0 2,-7 6,-4 4,2 4,6 7,3 4,-3 5,-9 -6,-17 -23,-15 -32,-45 -51,-58 -2,-2 -11,-6 -12,-11 -2,-10 1,-21 -6,-28 -6,-7 -9,-12 -10,-16 -1,-4 -1,-10 3,-14 4,-4 6,-7 11,-9 10,-3 12,6 8,10 -2,2 -4,7 -2,12 4,7 10,7 11,22 0,7 5,7 6,11 1,4 -1,3 5,8 3,2 2,7 4,11 2,5 6,8 12,7 5,-1 2,-9 -5,-15 -7,-6 -10,-7 -11,-14 -1,-7 0,-11 -2,-11 -8,-2 -8,-11 -2,-9 2,1 2,-4 5,-2 7,5 9,1 6,-18 0,-3 0,-4 1,-6 1,-2 3,-3 5,-2 1,1 1,3 1,4 1,8 10,29 12,40 2,7 7,32 12,40 8,15 20,25 35,33 6,3 21,-7 27,-12zm336 182c0,0 -5,-4 1,-7 6,-3 4,-2 9,-3 5,-1 6,-2 10,-3 4,-1 5,-4 11,-4 6,0 8,-2 9,2 1,4 -1,2 0,6 1,4 4,5 0,5 -4,0 -1,-4 -11,-1 -10,3 -11,3 -19,6 -8,3 -10,0 -10,0zm75 -110c-1,0 -4,1 -5,2 -1,1 0,2 -2,3 -2,1 -3,0 -4,0 -1,0 -2,1 -2,2 0,1 0,1 0,3 0,1 0,3 2,5 2,1 4,2 5,2 1,0 2,-2 3,-3 1,-1 0,-2 1,-4 1,-2 3,-3 3,-4 1,-2 1,-4 0,-4 -1,0 -1,0 -1,0zm-16 -19c0,0 2,1 2,1 3,4 2,0 2,-1 0,-3 -2,-2 -3,-2 0,0 -3,1 -2,2zm-390 52c2,3 2,2 3,3 1,3 1,3 3,4 2,1 3,2 3,1 0,-2 1,-2 2,-3 1,-1 1,1 3,0 3,-3 0,-3 -3,-6 -4,-4 -4,-6 -9,-6 -1,0 -2,-1 -4,-1 -2,0 -2,1 -2,2 0,2 4,4 4,5zm-55 61c1,3 0,1 1,3 0,2 1,5 3,2 2,-2 2,-1 4,-1 2,0 2,0 3,-2 1,-1 0,-2 0,-4 0,-2 -1,-3 -3,-4 -2,-1 -2,-2 -5,-1 -1,0 -3,2 -3,2 -1,0 -2,1 -1,4zm-14 27c-4,2 -6,3 -8,3 -2,0 -2,-1 -5,1 -3,2 -6,4 -5,6 1,2 -1,1 1,5 2,5 -1,8 5,5 6,-3 2,-2 8,-4 6,-2 7,-5 7,-5 0,0 0,-1 0,-3 0,-2 1,2 0,-3 -1,-4 -2,-6 -3,-6 -1,0 -1,0 -1,0zm53 -93c-1,1 -1,2 0,2 1,1 3,1 3,-1 0,-3 3,-1 1,-3 -2,-2 -2,-2 -3,-2 -4,2 1,3 -1,4zm-3 -111c-3,2 1,2 1,3 0,1 0,2 1,3 1,1 2,2 3,2 1,0 3,-2 1,-4 -1,-2 0,-2 0,-2 0,-1 -1,-1 -1,-2 -1,-1 -1,-1 -3,-1 0,0 -1,0 -1,0 -2,-1 -1,1 -1,1zm-68 -112c-1,0 -1,-1 0,-2 0,-2 0,-3 1,-2 1,1 4,2 3,3 -1,1 0,1 -2,3 -2,2 0,-2 -2,-1zm0 15c2,1 2,2 3,2 1,0 2,-1 1,-2 0,-1 -1,-1 -2,-1 -1,0 -1,-1 -1,-1 0,0 0,-1 -1,0 -1,1 -1,1 0,2zm-43 -34c0,0 3,1 3,6 1,5 0,5 2,8 2,3 5,8 8,6 3,-2 5,-4 4,-7 -3,-6 2,-6 -2,-7 -2,-1 -7,0 -8,-8 -1,-7 2,-7 -1,-9 -3,-2 -1,-2 -6,-1 0,0 -2,1 -3,1 -2,1 -6,3 -5,5 1,4 7,6 7,6zm278 109c1,1 1,0 4,0 3,0 2,-1 4,0 3,1 5,0 5,-2 0,-2 -3,-4 -4,-4 -2,0 -3,1 -4,1 -1,0 -1,1 -4,1 -3,1 -2,3 -2,3 0,0 1,1 1,1zm39 -2c5,1 11,-3 25,-3 3,0 7,4 9,0 2,-4 -1,-5 -1,-8 0,-4 -5,0 -12,0 -8,0 -2,-1 -15,1 -6,1 -18,-1 -18,-1 -2,1 -2,2 -1,4 1,1 0,2 0,3 0,1 -2,2 1,4 2,1 4,-2 12,-1zm46 -7c0,0 3,-3 7,-2 4,0 7,-2 8,-2 1,0 3,-1 5,1 2,3 4,3 1,4 -3,1 0,0 -5,0 -4,0 -8,0 -9,0 -1,0 -2,2 -5,1 -2,-1 -2,-3 -2,-3zm57 -1c1,1 3,3 4,2 2,-1 3,-1 4,0 1,0 2,1 2,0 0,-1 -1,-2 -2,-3 -2,-1 -1,0 -3,-1 -3,-1 -3,-3 -4,-1 -1,2 -2,1 -1,3 1,1 1,1 1,1zm156 59c0,0 2,4 2,3 1,-1 2,-1 2,-2 -1,-1 -1,-2 -1,-3 0,-1 0,-3 -2,-1 -1,1 -1,4 -1,4zm-419 9c9,-6 19,-15 24,-15 5,0 5,-4 14,-9 9,-5 79,-30 107,-31 12,0 18,-2 26,-3 3,0 7,3 11,2 13,-2 38,-8 42,-5 9,6 10,4 14,3 4,-1 5,-4 12,-3 7,1 14,5 22,10 9,4 17,6 22,7 5,2 30,13 50,26 20,13 41,28 47,31 8,5 21,18 12,28 -6,7 -9,6 -10,7 -2,2 3,7 -7,13 -8,5 -50,24 -91,29 -41,5 -66,10 -111,5 -44,-5 -63,-11 -96,-23 -33,-12 -65,-34 -68,-30 -4,5 47,28 52,31 0,0 34,14 49,18 14,4 52,11 63,13 12,2 26,0 30,2 4,2 10,6 2,8 -8,2 -30,7 -45,5 -16,-2 -24,-2 -31,-7 -7,-5 -8,-10 -13,-11 -10,-3 -49,-14 -66,-21 -27,-11 -40,-19 -55,-28 -16,-10 -20,-15 -17,-19 4,-4 8,-1 12,2 4,3 7,5 9,3 2,-2 -1,-4 -8,-10 -7,-6 -7,-1 -12,-3 -13,-6 0,-18 9,-24zm-101 -29c0,1 -1,4 1,8 2,4 3,7 7,9 4,2 7,4 7,0 0,-5 1,-6 -2,-7 -3,-2 -6,-3 -7,-4 -1,-2 -1,-1 -2,-4 -1,-2 0,-4 -2,-3 -1,1 -2,1 -2,2z"/>
  <path class="fil3" d="M658 770c7,-6 24,-32 25,-33 1,-1 9,-13 51,-21 42,-9 85,-26 141,-29 56,-3 94,3 97,3 2,0 40,2 55,9 19,9 37,20 48,28 11,9 20,11 24,15 5,4 8,14 14,21 4,6 14,12 16,14 1,1 2,5 4,8 2,3 3,3 4,2 4,-3 3,-4 5,-4 1,0 2,3 1,4 -1,2 -6,6 -4,8 2,2 11,8 15,10 10,6 8,5 9,5 1,0 2,-1 4,-1 2,0 5,-1 6,-1 1,0 1,0 1,4 -1,3 5,5 -3,6 -5,1 -7,5 -3,7 2,1 9,3 8,10 -2,7 6,6 3,12 -3,6 -9,5 -16,10 -7,5 -6,5 -10,12 -4,6 14,28 11,33 -1,2 -5,8 -10,2 0,0 -4,-6 -5,-9 -2,-3 -4,-9 -10,-11 -6,-2 -4,1 -7,0 -3,-1 -4,-2 -4,-3 -1,-1 1,-5 -4,-7 -4,-2 -7,0 -13,3 -5,2 -8,5 -10,10 -1,2 1,9 0,14 -1,5 -5,9 -7,11 -2,1 -7,1 -11,0 -4,-1 -9,-4 -15,-6 -6,-2 -6,-4 -11,0 -5,3 -3,5 -7,8 -5,4 -14,-1 -13,6 0,4 0,10 -3,10 -3,1 -3,-1 -7,-3 -4,-1 -14,3 -18,5 -4,2 -6,-2 -16,-1 0,0 -31,5 -37,5 -6,0 -21,0 -23,0 -2,0 -5,4 -3,9 2,5 5,1 10,4 1,1 4,1 7,2 5,2 10,5 5,5 -4,0 -10,-1 -15,-2 -3,-1 -8,-2 -11,-3 -10,-4 -15,-5 -33,-9 -19,-3 -31,-5 -39,-5 -8,0 -9,1 -12,-1 -3,-2 -1,-5 -4,-7 -3,-2 -6,-3 -8,-1 -2,1 -1,5 -7,5 -5,0 -13,-1 -17,-2 -19,-5 -34,-11 -55,-26 -4,-3 -20,-7 -28,-13 -4,-2 -23,-14 -39,-25 -5,-3 -18,-17 -23,-16 -4,1 -5,3 -11,10 -4,5 -4,-5 -17,11 -13,16 -21,22 -28,31 -7,9 -14,14 -11,22 3,8 4,9 -1,13 -4,5 -2,4 -7,1 -5,-3 -10,-1 -9,5 1,6 4,8 1,13 -4,5 -3,9 -2,14 0,5 2,4 -1,7 -2,2 -3,-5 -10,-11 -7,-6 -2,-9 -4,-13 -3,-4 -11,-8 -5,-12 6,-4 7,-6 7,-12 0,-6 -3,-10 -1,-15 2,-5 7,-7 3,-11 -4,-4 -8,2 -12,9 -5,10 -13,21 -13,31 0,8 -3,15 -13,12 -20,-7 -7,-13 4,-27 7,-10 17,-24 20,-29 4,-7 5,-21 12,-32 6,-8 17,-25 24,-35 9,-14 7,-9 6,-18 0,0 2,-7 6,-4 4,2 4,6 7,3 4,-3 5,-9 -6,-17 -23,-15 -32,-45 -51,-58 -2,-2 -11,-6 -12,-11 -2,-10 1,-21 -6,-28 -6,-7 -9,-12 -10,-16 -1,-4 -1,-10 3,-14 4,-4 6,-7 11,-9 10,-3 12,6 8,10 -2,2 -4,7 -2,12 4,7 10,7 11,22 0,7 5,7 6,11 1,4 -1,3 5,8 3,2 2,7 4,11 2,5 6,8 12,7 5,-1 2,-9 -5,-15 -7,-6 -10,-7 -11,-14 -1,-7 0,-11 -2,-11 -8,-2 -8,-11 -2,-9 2,1 2,-4 5,-2 7,5 9,1 6,-18 0,-3 0,-4 1,-6 1,-2 3,-3 5,-2 1,1 1,3 1,4 1,8 10,29 12,40 2,7 7,32 12,40 8,15 20,25 35,33 6,3 21,-7 27,-12zm336 182c0,0 -5,-4 1,-7 6,-3 4,-2 9,-3 5,-1 6,-2 10,-3 4,-1 5,-4 11,-4 6,0 8,-2 9,2 1,4 -1,2 0,6 1,4 4,5 0,5 -4,0 -1,-4 -11,-1 -10,3 -11,3 -19,6 -8,3 -10,0 -10,0zm75 -110c-1,0 -4,1 -5,2 -1,1 0,2 -2,3 -2,1 -3,0 -4,0 -1,0 -2,1 -2,2 0,1 0,1 0,3 0,1 0,3 2,5 2,1 4,2 5,2 1,0 2,-2 3,-3 1,-1 0,-2 1,-4 1,-2 3,-3 3,-4 1,-2 1,-4 0,-4 -1,0 -1,0 -1,0zm-16 -19c0,0 2,1 2,1 3,4 2,0 2,-1 0,-3 -2,-2 -3,-2 0,0 -3,1 -2,2zm-390 52c2,3 2,2 3,3 1,3 1,3 3,4 2,1 3,2 3,1 0,-2 1,-2 2,-3 1,-1 1,1 3,0 3,-3 0,-3 -3,-6 -4,-4 -4,-6 -9,-6 -1,0 -2,-1 -4,-1 -2,0 -2,1 -2,2 0,2 4,4 4,5zm-55 61c1,3 0,1 1,3 0,2 1,5 3,2 2,-2 2,-1 4,-1 2,0 2,0 3,-2 1,-1 0,-2 0,-4 0,-2 -1,-3 -3,-4 -2,-1 -2,-2 -5,-1 -1,0 -3,2 -3,2 -1,0 -2,1 -1,4zm-14 27c-4,2 -6,3 -8,3 -2,0 -2,-1 -5,1 -3,2 -6,4 -5,6 1,2 -1,1 1,5 2,5 -1,8 5,5 6,-3 2,-2 8,-4 6,-2 7,-5 7,-5 0,0 0,-1 0,-3 0,-2 1,2 0,-3 -1,-4 -2,-6 -3,-6 -1,0 -1,0 -1,0zm53 -93c-1,1 -1,2 0,2 1,1 3,1 3,-1 0,-3 3,-1 1,-3 -2,-2 -2,-2 -3,-2 -4,2 1,3 -1,4zm-3 -111c-3,2 1,2 1,3 0,1 0,2 1,3 1,1 2,2 3,2 1,0 3,-2 1,-4 -1,-2 0,-2 0,-2 0,-1 -1,-1 -1,-2 -1,-1 -1,-1 -3,-1 0,0 -1,0 -1,0 -2,-1 -1,1 -1,1zm-68 -112c-1,0 -1,-1 0,-2 0,-2 0,-3 1,-2 1,1 4,2 3,3 -1,1 0,1 -2,3 -2,2 0,-2 -2,-1zm0 15c2,1 2,2 3,2 1,0 2,-1 1,-2 0,-1 -1,-1 -2,-1 -1,0 -1,-1 -1,-1 0,0 0,-1 -1,0 -1,1 -1,1 0,2zm-43 -34c0,0 3,1 3,6 1,5 0,5 2,8 2,3 5,8 8,6 3,-2 5,-4 4,-7 -3,-6 2,-6 -2,-7 -2,-1 -7,0 -8,-8 -1,-7 2,-7 -1,-9 -3,-2 -1,-2 -6,-1 0,0 -2,1 -3,1 -2,1 -6,3 -5,5 1,4 7,6 7,6zm278 109c1,1 1,0 4,0 3,0 2,-1 4,0 3,1 5,0 5,-2 0,-2 -3,-4 -4,-4 -2,0 -3,1 -4,1 -1,0 -1,1 -4,1 -3,1 -2,3 -2,3 0,0 1,1 1,1zm39 -2c5,1 11,-3 25,-3 3,0 7,4 9,0 2,-4 -1,-5 -1,-8 0,-4 -5,0 -12,0 -8,0 -2,-1 -15,1 -6,1 -18,-1 -18,-1 -2,1 -2,2 -1,4 1,1 0,2 0,3 0,1 -2,2 1,4 2,1 4,-2 12,-1zm46 -7c0,0 3,-3 7,-2 4,0 7,-2 8,-2 1,0 3,-1 5,1 2,3 4,3 1,4 -3,1 0,0 -5,0 -4,0 -8,0 -9,0 -1,0 -2,2 -5,1 -2,-1 -2,-3 -2,-3zm57 -1c1,1 3,3 4,2 2,-1 3,-1 4,0 1,0 2,1 2,0 0,-1 -1,-2 -2,-3 -2,-1 -1,0 -3,-1 -3,-1 -3,-3 -4,-1 -1,2 -2,1 -1,3 1,1 1,1 1,1zm156 59c0,0 2,4 2,3 1,-1 2,-1 2,-2 -1,-1 -1,-2 -1,-3 0,-1 0,-3 -2,-1 -1,1 -1,4 -1,4zm-419 9c9,-6 19,-15 24,-15 5,0 5,-4 14,-9 9,-5 79,-30 107,-31 12,0 18,-2 26,-3 3,0 7,3 11,2 13,-2 38,-8 42,-5 9,6 10,4 14,3 4,-1 5,-4 12,-3 7,1 14,5 22,10 9,4 17,6 22,7 5,2 30,13 50,26 20,13 41,28 47,31 8,5 21,18 12,28 -6,7 -9,6 -10,7 -2,2 3,7 -7,13 -8,5 -50,24 -91,29 -41,5 -66,10 -111,5 -44,-5 -63,-11 -96,-23 -33,-12 -65,-34 -68,-30 -4,5 47,28 52,31 0,0 34,14 49,18 14,4 52,11 63,13 12,2 26,0 30,2 4,2 10,6 2,8 -8,2 -30,7 -45,5 -16,-2 -24,-2 -31,-7 -7,-5 -8,-10 -13,-11 -10,-3 -49,-14 -66,-21 -27,-11 -40,-19 -55,-28 -16,-10 -20,-15 -17,-19 4,-4 8,-1 12,2 4,3 7,5 9,3 2,-2 -1,-4 -8,-10 -7,-6 -7,-1 -12,-3 -13,-6 0,-18 9,-24zm-101 -29c0,1 -1,4 1,8 2,4 3,7 7,9 4,2 7,4 7,0 0,-5 1,-6 -2,-7 -3,-2 -6,-3 -7,-4 -1,-2 -1,-1 -2,-4 -1,-2 0,-4 -2,-3 -1,1 -2,1 -2,2z"/>
  <path class="fil3" d="M1175 448c7,-6 24,-32 25,-33 1,-1 9,-13 51,-21 42,-9 85,-26 141,-29 56,-3 94,3 97,3 2,0 40,2 55,9 19,9 37,20 48,28 11,9 20,11 24,15 5,4 8,14 14,21 4,6 14,12 16,14 1,1 2,5 4,8 2,3 3,3 4,2 4,-3 3,-4 5,-4 1,0 2,3 1,4 -1,2 -6,6 -4,8 2,2 11,8 15,10 10,6 8,5 9,5 1,0 2,-1 4,-1 2,0 5,-1 6,-1 1,0 1,0 1,4 -1,3 5,5 -3,6 -5,1 -7,5 -3,7 2,1 9,3 8,10 -2,7 6,6 3,12 -3,6 -9,5 -16,10 -7,5 -6,5 -10,12 -4,6 14,28 11,33 -1,2 -5,8 -10,2 0,0 -4,-6 -5,-9 -2,-3 -4,-9 -10,-11 -6,-2 -4,1 -7,0 -3,-1 -4,-2 -4,-3 -1,-1 1,-5 -4,-7 -4,-2 -7,0 -13,3 -5,2 -8,5 -10,10 -1,2 1,9 0,14 -1,5 -5,9 -7,11 -2,1 -7,1 -11,0 -4,-1 -9,-4 -15,-6 -6,-2 -6,-4 -11,0 -5,3 -3,5 -7,8 -5,4 -14,-1 -13,6 0,4 0,10 -3,10 -3,1 -3,-1 -7,-3 -4,-1 -14,3 -18,5 -4,2 -6,-2 -16,-1 0,0 -31,5 -37,5 -6,0 -21,0 -23,0 -2,0 -5,4 -3,9 2,5 5,1 10,4 1,1 4,1 7,2 5,2 10,5 5,5 -4,0 -10,-1 -15,-2 -3,-1 -8,-2 -11,-3 -10,-4 -15,-5 -33,-9 -19,-3 -31,-5 -39,-5 -8,0 -9,1 -12,-1 -3,-2 -1,-5 -4,-7 -3,-2 -6,-3 -8,-1 -2,1 -1,5 -7,5 -5,0 -13,-1 -17,-2 -19,-5 -34,-11 -55,-26 -4,-3 -20,-7 -28,-13 -4,-2 -23,-14 -39,-25 -5,-3 -18,-17 -23,-16 -4,1 -5,3 -11,10 -4,5 -4,-5 -17,11 -13,16 -21,22 -28,31 -7,9 -14,14 -11,22 3,8 4,9 -1,13 -4,5 -2,4 -7,1 -5,-3 -10,-1 -9,5 1,6 4,8 1,13 -4,5 -3,9 -2,14 0,5 2,4 -1,7 -2,2 -3,-5 -10,-11 -7,-6 -2,-9 -4,-13 -3,-4 -11,-8 -5,-12 6,-4 7,-6 7,-12 0,-6 -3,-10 -1,-15 2,-5 7,-7 3,-11 -4,-4 -8,2 -12,9 -5,10 -13,21 -13,31 0,8 -3,15 -13,12 -20,-7 -7,-13 4,-27 7,-10 17,-24 20,-29 4,-7 5,-21 12,-32 6,-8 17,-25 24,-35 9,-14 7,-9 6,-18 0,0 2,-7 6,-4 4,2 4,6 7,3 4,-3 5,-9 -6,-17 -23,-15 -32,-45 -51,-58 -2,-2 -11,-6 -12,-11 -2,-10 1,-21 -6,-28 -6,-7 -9,-12 -10,-16 -1,-4 -1,-10 3,-14 4,-4 6,-7 11,-9 10,-3 12,6 8,10 -2,2 -4,7 -2,12 4,7 10,7 11,22 0,7 5,7 6,11 1,4 -1,3 5,8 3,2 2,7 4,11 2,5 6,8 12,7 5,-1 2,-9 -5,-15 -7,-6 -10,-7 -11,-14 -1,-7 0,-11 -2,-11 -8,-2 -8,-11 -2,-9 2,1 2,-4 5,-2 7,5 9,1 6,-18 0,-3 0,-4 1,-6 1,-2 3,-3 5,-2 1,1 1,3 1,4 1,8 10,29 12,40 2,7 7,32 12,40 8,15 20,25 35,33 6,3 21,-7 27,-12zm336 182c0,0 -5,-4 1,-7 6,-3 4,-2 9,-3 5,-1 6,-2 10,-3 4,-1 5,-4 11,-4 6,0 8,-2 9,2 1,4 -1,2 0,6 1,4 4,5 0,5 -4,0 -1,-4 -11,-1 -10,3 -11,3 -19,6 -8,3 -10,0 -10,0zm75 -110c-1,0 -4,1 -5,2 -1,1 0,2 -2,3 -2,1 -3,0 -4,0 -1,0 -2,1 -2,2 0,1 0,1 0,3 0,1 0,3 2,5 2,1 4,2 5,2 1,0 2,-2 3,-3 1,-1 0,-2 1,-4 1,-2 3,-3 3,-4 1,-2 1,-4 0,-4 -1,0 -1,0 -1,0zm-16 -19c0,0 2,1 2,1 3,4 2,0 2,-1 0,-3 -2,-2 -3,-2 0,0 -3,1 -2,2zm-390 52c2,3 2,2 3,3 1,3 1,3 3,4 2,1 3,2 3,1 0,-2 1,-2 2,-3 1,-1 1,1 3,0 3,-3 0,-3 -3,-6 -4,-4 -4,-6 -9,-6 -1,0 -2,-1 -4,-1 -2,0 -2,1 -2,2 0,2 4,4 4,5zm-55 61c1,3 0,1 1,3 0,2 1,5 3,2 2,-2 2,-1 4,-1 2,0 2,0 3,-2 1,-1 0,-2 0,-4 0,-2 -1,-3 -3,-4 -2,-1 -2,-2 -5,-1 -1,0 -3,2 -3,2 -1,0 -2,1 -1,4zm-14 27c-4,2 -6,3 -8,3 -2,0 -2,-1 -5,1 -3,2 -6,4 -5,6 1,2 -1,1 1,5 2,5 -1,8 5,5 6,-3 2,-2 8,-4 6,-2 7,-5 7,-5 0,0 0,-1 0,-3 0,-2 1,2 0,-3 -1,-4 -2,-6 -3,-6 -1,0 -1,0 -1,0zm53 -93c-1,1 -1,2 0,2 1,1 3,1 3,-1 0,-3 3,-1 1,-3 -2,-2 -2,-2 -3,-2 -4,2 1,3 -1,4zm-3 -111c-3,2 1,2 1,3 0,1 0,2 1,3 1,1 2,2 3,2 1,0 3,-2 1,-4 -1,-2 0,-2 0,-2 0,-1 -1,-1 -1,-2 -1,-1 -1,-1 -3,-1 0,0 -1,0 -1,0 -2,-1 -1,1 -1,1zm-68 -112c-1,0 -1,-1 0,-2 0,-2 0,-3 1,-2 1,1 4,2 3,3 -1,1 0,1 -2,3 -2,2 0,-2 -2,-1zm0 15c2,1 2,2 3,2 1,0 2,-1 1,-2 0,-1 -1,-1 -2,-1 -1,0 -1,-1 -1,-1 0,0 0,-1 -1,0 -1,1 -1,1 0,2zm-43 -34c0,0 3,1 3,6 1,5 0,5 2,8 2,3 5,8 8,6 3,-2 5,-4 4,-7 -3,-6 2,-6 -2,-7 -2,-1 -7,0 -8,-8 -1,-7 2,-7 -1,-9 -3,-2 -1,-2 -6,-1 0,0 -2,1 -3,1 -2,1 -6,3 -5,5 1,4 7,6 7,6zm278 109c1,1 1,0 4,0 3,0 2,-1 4,0 3,1 5,0 5,-2 0,-2 -3,-4 -4,-4 -2,0 -3,1 -4,1 -1,0 -1,1 -4,1 -3,1 -2,3 -2,3 0,0 1,1 1,1zm39 -2c5,1 11,-3 25,-3 3,0 7,4 9,0 2,-4 -1,-5 -1,-8 0,-4 -5,0 -12,0 -8,0 -2,-1 -15,1 -6,1 -18,-1 -18,-1 -2,1 -2,2 -1,4 1,1 0,2 0,3 0,1 -2,2 1,4 2,1 4,-2 12,-1zm46 -7c0,0 3,-3 7,-2 4,0 7,-2 8,-2 1,0 3,-1 5,1 2,3 4,3 1,4 -3,1 0,0 -5,0 -4,0 -8,0 -9,0 -1,0 -2,2 -5,1 -2,-1 -2,-3 -2,-3zm57 -1c1,1 3,3 4,2 2,-1 3,-1 4,0 1,0 2,1 2,0 0,-1 -1,-2 -2,-3 -2,-1 -1,0 -3,-1 -3,-1 -3,-3 -4,-1 -1,2 -2,1 -1,3 1,1 1,1 1,1zm156 59c0,0 2,4 2,3 1,-1 2,-1 2,-2 -1,-1 -1,-2 -1,-3 0,-1 0,-3 -2,-1 -1,1 -1,4 -1,4zm-419 9c9,-6 19,-15 24,-15 5,0 5,-4 14,-9 9,-5 79,-30 107,-31 12,0 18,-2 26,-3 3,0 7,3 11,2 13,-2 38,-8 42,-5 9,6 10,4 14,3 4,-1 5,-4 12,-3 7,1 14,5 22,10 9,4 17,6 22,7 5,2 30,13 50,26 20,13 41,28 47,31 8,5 21,18 12,28 -6,7 -9,6 -10,7 -2,2 3,7 -7,13 -8,5 -50,24 -91,29 -41,5 -66,10 -111,5 -44,-5 -63,-11 -96,-23 -33,-12 -65,-34 -68,-30 -4,5 47,28 52,31 0,0 34,14 49,18 14,4 52,11 63,13 12,2 26,0 30,2 4,2 10,6 2,8 -8,2 -30,7 -45,5 -16,-2 -24,-2 -31,-7 -7,-5 -8,-10 -13,-11 -10,-3 -49,-14 -66,-21 -27,-11 -40,-19 -55,-28 -16,-10 -20,-15 -17,-19 4,-4 8,-1 12,2 4,3 7,5 9,3 2,-2 -1,-4 -8,-10 -7,-6 -7,-1 -12,-3 -13,-6 0,-18 9,-24zm-101 -29c0,1 -1,4 1,8 2,4 3,7 7,9 4,2 7,4 7,0 0,-5 1,-6 -2,-7 -3,-2 -6,-3 -7,-4 -1,-2 -1,-1 -2,-4 -1,-2 0,-4 -2,-3 -1,1 -2,1 -2,2z"/>
  <path class="fil3" d="M1739 155c7,-6 24,-32 25,-33 1,-1 9,-13 51,-21 42,-9 85,-26 141,-29 56,-3 94,3 97,3 2,0 40,2 55,9 19,9 37,20 48,28 11,9 20,11 24,15 5,4 8,14 14,21 4,6 14,12 16,14 1,1 2,5 4,8 2,3 3,3 4,2 4,-3 3,-4 5,-4 1,0 2,3 1,4 -1,2 -6,6 -4,8 2,2 11,8 15,10 10,6 8,5 9,5 1,0 2,-1 4,-1 2,0 5,-1 6,-1 1,0 1,0 1,4 -1,3 5,5 -3,6 -5,1 -7,5 -3,7 2,1 9,3 8,10 -2,7 6,6 3,12 -3,6 -9,5 -16,10 -7,5 -6,5 -10,12 -4,6 14,28 11,33 -1,2 -5,8 -10,2 0,0 -4,-6 -5,-9 -2,-3 -4,-9 -10,-11 -6,-2 -4,1 -7,0 -3,-1 -4,-2 -4,-3 -1,-1 1,-5 -4,-7 -4,-2 -7,0 -13,3 -5,2 -8,5 -10,10 -1,2 1,9 0,14 -1,5 -5,9 -7,11 -2,1 -7,1 -11,0 -4,-1 -9,-4 -15,-6 -6,-2 -6,-4 -11,0 -5,3 -3,5 -7,8 -5,4 -14,-1 -13,6 0,4 0,10 -3,10 -3,1 -3,-1 -7,-3 -4,-1 -14,3 -18,5 -4,2 -6,-2 -16,-1 0,0 -31,5 -37,5 -6,0 -21,0 -23,0 -2,0 -5,4 -3,9 2,5 5,1 10,4 1,1 4,1 7,2 5,2 10,5 5,5 -4,0 -10,-1 -15,-2 -3,-1 -8,-2 -11,-3 -10,-4 -15,-5 -33,-9 -19,-3 -31,-5 -39,-5 -8,0 -9,1 -12,-1 -3,-2 -1,-5 -4,-7 -3,-2 -6,-3 -8,-1 -2,1 -1,5 -7,5 -5,0 -13,-1 -17,-2 -19,-5 -34,-11 -55,-26 -4,-3 -20,-7 -28,-13 -4,-2 -23,-14 -39,-25 -5,-3 -18,-17 -23,-16 -4,1 -5,3 -11,10 -4,5 -4,-5 -17,11 -13,16 -21,22 -28,31 -7,9 -14,14 -11,22 3,8 4,9 -1,13 -4,5 -2,4 -7,1 -5,-3 -10,-1 -9,5 1,6 4,8 1,13 -4,5 -3,9 -2,14 0,5 2,4 -1,7 -2,2 -3,-5 -10,-11 -7,-6 -2,-9 -4,-13 -3,-4 -11,-8 -5,-12 6,-4 7,-6 7,-12 0,-6 -3,-10 -1,-15 2,-5 7,-7 3,-11 -4,-4 -8,2 -12,9 -5,10 -13,21 -13,31 0,8 -3,15 -13,12 -20,-7 -7,-13 4,-27 7,-10 17,-24 20,-29 4,-7 5,-21 12,-32 6,-8 17,-25 24,-35 9,-14 7,-9 6,-18 0,0 2,-7 6,-4 4,2 4,6 7,3 4,-3 5,-9 -6,-17 -23,-15 -32,-45 -51,-58 -2,-2 -11,-6 -12,-11 -2,-10 1,-21 -6,-28 -6,-7 -9,-12 -10,-16 -1,-4 -1,-10 3,-14 4,-4 6,-7 11,-9 10,-3 12,6 8,10 -2,2 -4,7 -2,12 4,7 10,7 11,22 0,7 5,7 6,11 1,4 -1,3 5,8 3,2 2,7 4,11 2,5 6,8 12,7 5,-1 2,-9 -5,-15 -7,-6 -10,-7 -11,-14 -1,-7 0,-11 -2,-11 -8,-2 -8,-11 -2,-9 2,1 2,-4 5,-2 7,5 9,1 6,-18 0,-3 0,-4 1,-6 1,-2 3,-3 5,-2 1,1 1,3 1,4 1,8 10,29 12,40 2,7 7,32 12,40 8,15 20,25 35,33 6,3 21,-7 27,-12zm336 182c0,0 -5,-4 1,-7 6,-3 4,-2 9,-3 5,-1 6,-2 10,-3 4,-1 5,-4 11,-4 6,0 8,-2 9,2 1,4 -1,2 0,6 1,4 4,5 0,5 -4,0 -1,-4 -11,-1 -10,3 -11,3 -19,6 -8,3 -10,0 -10,0zm75 -110c-1,0 -4,1 -5,2 -1,1 0,2 -2,3 -2,1 -3,0 -4,0 -1,0 -2,1 -2,2 0,1 0,1 0,3 0,1 0,3 2,5 2,1 4,2 5,2 1,0 2,-2 3,-3 1,-1 0,-2 1,-4 1,-2 3,-3 3,-4 1,-2 1,-4 0,-4 -1,0 -1,0 -1,0zm-16 -19c0,0 2,1 2,1 3,4 2,0 2,-1 0,-3 -2,-2 -3,-2 0,0 -3,1 -2,2zm-390 52c2,3 2,2 3,3 1,3 1,3 3,4 2,1 3,2 3,1 0,-2 1,-2 2,-3 1,-1 1,1 3,0 3,-3 0,-3 -3,-6 -4,-4 -4,-6 -9,-6 -1,0 -2,-1 -4,-1 -2,0 -2,1 -2,2 0,2 4,4 4,5zm-55 61c1,3 0,1 1,3 0,2 1,5 3,2 2,-2 2,-1 4,-1 2,0 2,0 3,-2 1,-1 0,-2 0,-4 0,-2 -1,-3 -3,-4 -2,-1 -2,-2 -5,-1 -1,0 -3,2 -3,2 -1,0 -2,1 -1,4zm-14 27c-4,2 -6,3 -8,3 -2,0 -2,-1 -5,1 -3,2 -6,4 -5,6 1,2 -1,1 1,5 2,5 -1,8 5,5 6,-3 2,-2 8,-4 6,-2 7,-5 7,-5 0,0 0,-1 0,-3 0,-2 1,2 0,-3 -1,-4 -2,-6 -3,-6 -1,0 -1,0 -1,0zm53 -93c-1,1 -1,2 0,2 1,1 3,1 3,-1 0,-3 3,-1 1,-3 -2,-2 -2,-2 -3,-2 -4,2 1,3 -1,4zm-3 -111c-3,2 1,2 1,3 0,1 0,2 1,3 1,1 2,2 3,2 1,0 3,-2 1,-4 -1,-2 0,-2 0,-2 0,-1 -1,-1 -1,-2 -1,-1 -1,-1 -3,-1 0,0 -1,0 -1,0 -2,-1 -1,1 -1,1zm-68 -112c-1,0 -1,-1 0,-2 0,-2 0,-3 1,-2 1,1 4,2 3,3 -1,1 0,1 -2,3 -2,2 0,-2 -2,-1zm0 15c2,1 2,2 3,2 1,0 2,-1 1,-2 0,-1 -1,-1 -2,-1 -1,0 -1,-1 -1,-1 0,0 0,-1 -1,0 -1,1 -1,1 0,2zm-43 -34c0,0 3,1 3,6 1,5 0,5 2,8 2,3 5,8 8,6 3,-2 5,-4 4,-7 -3,-6 2,-6 -2,-7 -2,-1 -7,0 -8,-8 -1,-7 2,-7 -1,-9 -3,-2 -1,-2 -6,-1 0,0 -2,1 -3,1 -2,1 -6,3 -5,5 1,4 7,6 7,6zm278 109c1,1 1,0 4,0 3,0 2,-1 4,0 3,1 5,0 5,-2 0,-2 -3,-4 -4,-4 -2,0 -3,1 -4,1 -1,0 -1,1 -4,1 -3,1 -2,3 -2,3 0,0 1,1 1,1zm39 -2c5,1 11,-3 25,-3 3,0 7,4 9,0 2,-4 -1,-5 -1,-8 0,-4 -5,0 -12,0 -8,0 -2,-1 -15,1 -6,1 -18,-1 -18,-1 -2,1 -2,2 -1,4 1,1 0,2 0,3 0,1 -2,2 1,4 2,1 4,-2 12,-1zm46 -7c0,0 3,-3 7,-2 4,0 7,-2 8,-2 1,0 3,-1 5,1 2,3 4,3 1,4 -3,1 0,0 -5,0 -4,0 -8,0 -9,0 -1,0 -2,2 -5,1 -2,-1 -2,-3 -2,-3zm57 -1c1,1 3,3 4,2 2,-1 3,-1 4,0 1,0 2,1 2,0 0,-1 -1,-2 -2,-3 -2,-1 -1,0 -3,-1 -3,-1 -3,-3 -4,-1 -1,2 -2,1 -1,3 1,1 1,1 1,1zm156 59c0,0 2,4 2,3 1,-1 2,-1 2,-2 -1,-1 -1,-2 -1,-3 0,-1 0,-3 -2,-1 -1,1 -1,4 -1,4zm-419 9c9,-6 19,-15 24,-15 5,0 5,-4 14,-9 9,-5 79,-30 107,-31 12,0 18,-2 26,-3 3,0 7,3 11,2 13,-2 38,-8 42,-5 9,6 10,4 14,3 4,-1 5,-4 12,-3 7,1 14,5 22,10 9,4 17,6 22,7 5,2 30,13 50,26 20,13 41,28 47,31 8,5 21,18 12,28 -6,7 -9,6 -10,7 -2,2 3,7 -7,13 -8,5 -50,24 -91,29 -41,5 -66,10 -111,5 -44,-5 -63,-11 -96,-23 -33,-12 -65,-34 -68,-30 -4,5 47,28 52,31 0,0 34,14 49,18 14,4 52,11 63,13 12,2 26,0 30,2 4,2 10,6 2,8 -8,2 -30,7 -45,5 -16,-2 -24,-2 -31,-7 -7,-5 -8,-10 -13,-11 -10,-3 -49,-14 -66,-21 -27,-11 -40,-19 -55,-28 -16,-10 -20,-15 -17,-19 4,-4 8,-1 12,2 4,3 7,5 9,3 2,-2 -1,-4 -8,-10 -7,-6 -7,-1 -12,-3 -13,-6 0,-18 9,-24zm-101 -29c0,1 -1,4 1,8 2,4 3,7 7,9 4,2 7,4 7,0 0,-5 1,-6 -2,-7 -3,-2 -6,-3 -7,-4 -1,-2 -1,-1 -2,-4 -1,-2 0,-4 -2,-3 -1,1 -2,1 -2,2z"/>
  <path class="fil3" d="M2079 546c7,-6 24,-32 25,-33 1,-1 9,-13 51,-21 42,-9 85,-26 141,-29 56,-3 94,3 97,3 2,0 40,2 55,9 19,9 37,20 48,28 11,9 20,11 24,15 5,4 8,14 14,21 4,6 14,12 16,14 1,1 2,5 4,8 2,3 3,3 4,2 4,-3 3,-4 5,-4 1,0 2,3 1,4 -1,2 -6,6 -4,8 2,2 11,8 15,10 10,6 8,5 9,5 1,0 2,-1 4,-1 2,0 5,-1 6,-1 1,0 1,0 1,4 -1,3 5,5 -3,6 -5,1 -7,5 -3,7 2,1 9,3 8,10 -2,7 6,6 3,12 -3,6 -9,5 -16,10 -7,5 -6,5 -10,12 -4,6 14,28 11,33 -1,2 -5,8 -10,2 0,0 -4,-6 -5,-9 -2,-3 -4,-9 -10,-11 -6,-2 -4,1 -7,0 -3,-1 -4,-2 -4,-3 -1,-1 1,-5 -4,-7 -4,-2 -7,0 -13,3 -5,2 -8,5 -10,10 -1,2 1,9 0,14 -1,5 -5,9 -7,11 -2,1 -7,1 -11,0 -4,-1 -9,-4 -15,-6 -6,-2 -6,-4 -11,0 -5,3 -3,5 -7,8 -5,4 -14,-1 -13,6 0,4 0,10 -3,10 -3,1 -3,-1 -7,-3 -4,-1 -14,3 -18,5 -4,2 -6,-2 -16,-1 0,0 -31,5 -37,5 -6,0 -21,0 -23,0 -2,0 -5,4 -3,9 2,5 5,1 10,4 1,1 4,1 7,2 5,2 10,5 5,5 -4,0 -10,-1 -15,-2 -3,-1 -8,-2 -11,-3 -10,-4 -15,-5 -33,-9 -19,-3 -31,-5 -39,-5 -8,0 -9,1 -12,-1 -3,-2 -1,-5 -4,-7 -3,-2 -6,-3 -8,-1 -2,1 -1,5 -7,5 -5,0 -13,-1 -17,-2 -19,-5 -34,-11 -55,-26 -4,-3 -20,-7 -28,-13 -4,-2 -23,-14 -39,-25 -5,-3 -18,-17 -23,-16 -4,1 -5,3 -11,10 -4,5 -4,-5 -17,11 -13,16 -21,22 -28,31 -7,9 -14,14 -11,22 3,8 4,9 -1,13 -4,5 -2,4 -7,1 -5,-3 -10,-1 -9,5 1,6 4,8 1,13 -4,5 -3,9 -2,14 0,5 2,4 -1,7 -2,2 -3,-5 -10,-11 -7,-6 -2,-9 -4,-13 -3,-4 -11,-8 -5,-12 6,-4 7,-6 7,-12 0,-6 -3,-10 -1,-15 2,-5 7,-7 3,-11 -4,-4 -8,2 -12,9 -5,10 -13,21 -13,31 0,8 -3,15 -13,12 -20,-7 -7,-13 4,-27 7,-10 17,-24 20,-29 4,-7 5,-21 12,-32 6,-8 17,-25 24,-35 9,-14 7,-9 6,-18 0,0 2,-7 6,-4 4,2 4,6 7,3 4,-3 5,-9 -6,-17 -23,-15 -32,-45 -51,-58 -2,-2 -11,-6 -12,-11 -2,-10 1,-21 -6,-28 -6,-7 -9,-12 -10,-16 -1,-4 -1,-10 3,-14 4,-4 6,-7 11,-9 10,-3 12,6 8,10 -2,2 -4,7 -2,12 4,7 10,7 11,22 0,7 5,7 6,11 1,4 -1,3 5,8 3,2 2,7 4,11 2,5 6,8 12,7 5,-1 2,-9 -5,-15 -7,-6 -10,-7 -11,-14 -1,-7 0,-11 -2,-11 -8,-2 -8,-11 -2,-9 2,1 2,-4 5,-2 7,5 9,1 6,-18 0,-3 0,-4 1,-6 1,-2 3,-3 5,-2 1,1 1,3 1,4 1,8 10,29 12,40 2,7 7,32 12,40 8,15 20,25 35,33 6,3 21,-7 27,-12zm336 182c0,0 -5,-4 1,-7 6,-3 4,-2 9,-3 5,-1 6,-2 10,-3 4,-1 5,-4 11,-4 6,0 8,-2 9,2 1,4 -1,2 0,6 1,4 4,5 0,5 -4,0 -1,-4 -11,-1 -10,3 -11,3 -19,6 -8,3 -10,0 -10,0zm75 -110c-1,0 -4,1 -5,2 -1,1 0,2 -2,3 -2,1 -3,0 -4,0 -1,0 -2,1 -2,2 0,1 0,1 0,3 0,1 0,3 2,5 2,1 4,2 5,2 1,0 2,-2 3,-3 1,-1 0,-2 1,-4 1,-2 3,-3 3,-4 1,-2 1,-4 0,-4 -1,0 -1,0 -1,0zm-16 -19c0,0 2,1 2,1 3,4 2,0 2,-1 0,-3 -2,-2 -3,-2 0,0 -3,1 -2,2zm-390 52c2,3 2,2 3,3 1,3 1,3 3,4 2,1 3,2 3,1 0,-2 1,-2 2,-3 1,-1 1,1 3,0 3,-3 0,-3 -3,-6 -4,-4 -4,-6 -9,-6 -1,0 -2,-1 -4,-1 -2,0 -2,1 -2,2 0,2 4,4 4,5zm-55 61c1,3 0,1 1,3 0,2 1,5 3,2 2,-2 2,-1 4,-1 2,0 2,0 3,-2 1,-1 0,-2 0,-4 0,-2 -1,-3 -3,-4 -2,-1 -2,-2 -5,-1 -1,0 -3,2 -3,2 -1,0 -2,1 -1,4zm-14 27c-4,2 -6,3 -8,3 -2,0 -2,-1 -5,1 -3,2 -6,4 -5,6 1,2 -1,1 1,5 2,5 -1,8 5,5 6,-3 2,-2 8,-4 6,-2 7,-5 7,-5 0,0 0,-1 0,-3 0,-2 1,2 0,-3 -1,-4 -2,-6 -3,-6 -1,0 -1,0 -1,0zm53 -93c-1,1 -1,2 0,2 1,1 3,1 3,-1 0,-3 3,-1 1,-3 -2,-2 -2,-2 -3,-2 -4,2 1,3 -1,4zm-3 -111c-3,2 1,2 1,3 0,1 0,2 1,3 1,1 2,2 3,2 1,0 3,-2 1,-4 -1,-2 0,-2 0,-2 0,-1 -1,-1 -1,-2 -1,-1 -1,-1 -3,-1 0,0 -1,0 -1,0 -2,-1 -1,1 -1,1zm-68 -112c-1,0 -1,-1 0,-2 0,-2 0,-3 1,-2 1,1 4,2 3,3 -1,1 0,1 -2,3 -2,2 0,-2 -2,-1zm0 15c2,1 2,2 3,2 1,0 2,-1 1,-2 0,-1 -1,-1 -2,-1 -1,0 -1,-1 -1,-1 0,0 0,-1 -1,0 -1,1 -1,1 0,2zm-43 -34c0,0 3,1 3,6 1,5 0,5 2,8 2,3 5,8 8,6 3,-2 5,-4 4,-7 -3,-6 2,-6 -2,-7 -2,-1 -7,0 -8,-8 -1,-7 2,-7 -1,-9 -3,-2 -1,-2 -6,-1 0,0 -2,1 -3,1 -2,1 -6,3 -5,5 1,4 7,6 7,6zm278 109c1,1 1,0 4,0 3,0 2,-1 4,0 3,1 5,0 5,-2 0,-2 -3,-4 -4,-4 -2,0 -3,1 -4,1 -1,0 -1,1 -4,1 -3,1 -2,3 -2,3 0,0 1,1 1,1zm39 -2c5,1 11,-3 25,-3 3,0 7,4 9,0 2,-4 -1,-5 -1,-8 0,-4 -5,0 -12,0 -8,0 -2,-1 -15,1 -6,1 -18,-1 -18,-1 -2,1 -2,2 -1,4 1,1 0,2 0,3 0,1 -2,2 1,4 2,1 4,-2 12,-1zm46 -7c0,0 3,-3 7,-2 4,0 7,-2 8,-2 1,0 3,-1 5,1 2,3 4,3 1,4 -3,1 0,0 -5,0 -4,0 -8,0 -9,0 -1,0 -2,2 -5,1 -2,-1 -2,-3 -2,-3zm57 -1c1,1 3,3 4,2 2,-1 3,-1 4,0 1,0 2,1 2,0 0,-1 -1,-2 -2,-3 -2,-1 -1,0 -3,-1 -3,-1 -3,-3 -4,-1 -1,2 -2,1 -1,3 1,1 1,1 1,1zm156 59c0,0 2,4 2,3 1,-1 2,-1 2,-2 -1,-1 -1,-2 -1,-3 0,-1 0,-3 -2,-1 -1,1 -1,4 -1,4zm-419 9c9,-6 19,-15 24,-15 5,0 5,-4 14,-9 9,-5 79,-30 107,-31 12,0 18,-2 26,-3 3,0 7,3 11,2 13,-2 38,-8 42,-5 9,6 10,4 14,3 4,-1 5,-4 12,-3 7,1 14,5 22,10 9,4 17,6 22,7 5,2 30,13 50,26 20,13 41,28 47,31 8,5 21,18 12,28 -6,7 -9,6 -10,7 -2,2 3,7 -7,13 -8,5 -50,24 -91,29 -41,5 -66,10 -111,5 -44,-5 -63,-11 -96,-23 -33,-12 -65,-34 -68,-30 -4,5 47,28 52,31 0,0 34,14 49,18 14,4 52,11 63,13 12,2 26,0 30,2 4,2 10,6 2,8 -8,2 -30,7 -45,5 -16,-2 -24,-2 -31,-7 -7,-5 -8,-10 -13,-11 -10,-3 -49,-14 -66,-21 -27,-11 -40,-19 -55,-28 -16,-10 -20,-15 -17,-19 4,-4 8,-1 12,2 4,3 7,5 9,3 2,-2 -1,-4 -8,-10 -7,-6 -7,-1 -12,-3 -13,-6 0,-18 9,-24zm-101 -29c0,1 -1,4 1,8 2,4 3,7 7,9 4,2 7,4 7,0 0,-5 1,-6 -2,-7 -3,-2 -6,-3 -7,-4 -1,-2 -1,-1 -2,-4 -1,-2 0,-4 -2,-3 -1,1 -2,1 -2,2z"/>
  <path class="fil3" d="M2364 1030c7,-6 24,-32 25,-33 1,-1 9,-13 51,-21 42,-9 85,-26 141,-29 56,-3 94,3 97,3 2,0 40,2 55,9 19,9 37,20 48,28 11,9 20,11 24,15 5,4 8,14 14,21 4,6 14,12 16,14 1,1 2,5 4,8 2,3 3,3 4,2 4,-3 3,-4 5,-4 1,0 2,3 1,4 -1,2 -6,6 -4,8 2,2 11,8 15,10 10,6 8,5 9,5 1,0 2,-1 4,-1 2,0 5,-1 6,-1 1,0 1,0 1,4 -1,3 5,5 -3,6 -5,1 -7,5 -3,7 2,1 9,3 8,10 -2,7 6,6 3,12 -3,6 -9,5 -16,10 -7,5 -6,5 -10,12 -4,6 14,28 11,33 -1,2 -5,8 -10,2 0,0 -4,-6 -5,-9 -2,-3 -4,-9 -10,-11 -6,-2 -4,1 -7,0 -3,-1 -4,-2 -4,-3 -1,-1 1,-5 -4,-7 -4,-2 -7,0 -13,3 -5,2 -8,5 -10,10 -1,2 1,9 0,14 -1,5 -5,9 -7,11 -2,1 -7,1 -11,0 -4,-1 -9,-4 -15,-6 -6,-2 -6,-4 -11,0 -5,3 -3,5 -7,8 -5,4 -14,-1 -13,6 0,4 0,10 -3,10 -3,1 -3,-1 -7,-3 -4,-1 -14,3 -18,5 -4,2 -6,-2 -16,-1 0,0 -31,5 -37,5 -6,0 -21,0 -23,0 -2,0 -5,4 -3,9 2,5 5,1 10,4 1,1 4,1 7,2 5,2 10,5 5,5 -4,0 -10,-1 -15,-2 -3,-1 -8,-2 -11,-3 -10,-4 -15,-5 -33,-9 -19,-3 -31,-5 -39,-5 -8,0 -9,1 -12,-1 -3,-2 -1,-5 -4,-7 -3,-2 -6,-3 -8,-1 -2,1 -1,5 -7,5 -5,0 -13,-1 -17,-2 -19,-5 -34,-11 -55,-26 -4,-3 -20,-7 -28,-13 -4,-2 -23,-14 -39,-25 -5,-3 -18,-17 -23,-16 -4,1 -5,3 -11,10 -4,5 -4,-5 -17,11 -13,16 -21,22 -28,31 -7,9 -14,14 -11,22 3,8 4,9 -1,13 -4,5 -2,4 -7,1 -5,-3 -10,-1 -9,5 1,6 4,8 1,13 -4,5 -3,9 -2,14 0,5 2,4 -1,7 -2,2 -3,-5 -10,-11 -7,-6 -2,-9 -4,-13 -3,-4 -11,-8 -5,-12 6,-4 7,-6 7,-12 0,-6 -3,-10 -1,-15 2,-5 7,-7 3,-11 -4,-4 -8,2 -12,9 -5,10 -13,21 -13,31 0,8 -3,15 -13,12 -20,-7 -7,-13 4,-27 7,-10 17,-24 20,-29 4,-7 5,-21 12,-32 6,-8 17,-25 24,-35 9,-14 7,-9 6,-18 0,0 2,-7 6,-4 4,2 4,6 7,3 4,-3 5,-9 -6,-17 -23,-15 -32,-45 -51,-58 -2,-2 -11,-6 -12,-11 -2,-10 1,-21 -6,-28 -6,-7 -9,-12 -10,-16 -1,-4 -1,-10 3,-14 4,-4 6,-7 11,-9 10,-3 12,6 8,10 -2,2 -4,7 -2,12 4,7 10,7 11,22 0,7 5,7 6,11 1,4 -1,3 5,8 3,2 2,7 4,11 2,5 6,8 12,7 5,-1 2,-9 -5,-15 -7,-6 -10,-7 -11,-14 -1,-7 0,-11 -2,-11 -8,-2 -8,-11 -2,-9 2,1 2,-4 5,-2 7,5 9,1 6,-18 0,-3 0,-4 1,-6 1,-2 3,-3 5,-2 1,1 1,3 1,4 1,8 10,29 12,40 2,7 7,32 12,40 8,15 20,25 35,33 6,3 21,-7 27,-12zm336 182c0,0 -5,-4 1,-7 6,-3 4,-2 9,-3 5,-1 6,-2 10,-3 4,-1 5,-4 11,-4 6,0 8,-2 9,2 1,4 -1,2 0,6 1,4 4,5 0,5 -4,0 -1,-4 -11,-1 -10,3 -11,3 -19,6 -8,3 -10,0 -10,0zm75 -110c-1,0 -4,1 -5,2 -1,1 0,2 -2,3 -2,1 -3,0 -4,0 -1,0 -2,1 -2,2 0,1 0,1 0,3 0,1 0,3 2,5 2,1 4,2 5,2 1,0 2,-2 3,-3 1,-1 0,-2 1,-4 1,-2 3,-3 3,-4 1,-2 1,-4 0,-4 -1,0 -1,0 -1,0zm-16 -19c0,0 2,1 2,1 3,4 2,0 2,-1 0,-3 -2,-2 -3,-2 0,0 -3,1 -2,2zm-390 52c2,3 2,2 3,3 1,3 1,3 3,4 2,1 3,2 3,1 0,-2 1,-2 2,-3 1,-1 1,1 3,0 3,-3 0,-3 -3,-6 -4,-4 -4,-6 -9,-6 -1,0 -2,-1 -4,-1 -2,0 -2,1 -2,2 0,2 4,4 4,5zm-55 61c1,3 0,1 1,3 0,2 1,5 3,2 2,-2 2,-1 4,-1 2,0 2,0 3,-2 1,-1 0,-2 0,-4 0,-2 -1,-3 -3,-4 -2,-1 -2,-2 -5,-1 -1,0 -3,2 -3,2 -1,0 -2,1 -1,4zm-14 27c-4,2 -6,3 -8,3 -2,0 -2,-1 -5,1 -3,2 -6,4 -5,6 1,2 -1,1 1,5 2,5 -1,8 5,5 6,-3 2,-2 8,-4 6,-2 7,-5 7,-5 0,0 0,-1 0,-3 0,-2 1,2 0,-3 -1,-4 -2,-6 -3,-6 -1,0 -1,0 -1,0zm53 -93c-1,1 -1,2 0,2 1,1 3,1 3,-1 0,-3 3,-1 1,-3 -2,-2 -2,-2 -3,-2 -4,2 1,3 -1,4zm-3 -111c-3,2 1,2 1,3 0,1 0,2 1,3 1,1 2,2 3,2 1,0 3,-2 1,-4 -1,-2 0,-2 0,-2 0,-1 -1,-1 -1,-2 -1,-1 -1,-1 -3,-1 0,0 -1,0 -1,0 -2,-1 -1,1 -1,1zm-68 -112c-1,0 -1,-1 0,-2 0,-2 0,-3 1,-2 1,1 4,2 3,3 -1,1 0,1 -2,3 -2,2 0,-2 -2,-1zm0 15c2,1 2,2 3,2 1,0 2,-1 1,-2 0,-1 -1,-1 -2,-1 -1,0 -1,-1 -1,-1 0,0 0,-1 -1,0 -1,1 -1,1 0,2zm-43 -34c0,0 3,1 3,6 1,5 0,5 2,8 2,3 5,8 8,6 3,-2 5,-4 4,-7 -3,-6 2,-6 -2,-7 -2,-1 -7,0 -8,-8 -1,-7 2,-7 -1,-9 -3,-2 -1,-2 -6,-1 0,0 -2,1 -3,1 -2,1 -6,3 -5,5 1,4 7,6 7,6zm278 109c1,1 1,0 4,0 3,0 2,-1 4,0 3,1 5,0 5,-2 0,-2 -3,-4 -4,-4 -2,0 -3,1 -4,1 -1,0 -1,1 -4,1 -3,1 -2,3 -2,3 0,0 1,1 1,1zm39 -2c5,1 11,-3 25,-3 3,0 7,4 9,0 2,-4 -1,-5 -1,-8 0,-4 -5,0 -12,0 -8,0 -2,-1 -15,1 -6,1 -18,-1 -18,-1 -2,1 -2,2 -1,4 1,1 0,2 0,3 0,1 -2,2 1,4 2,1 4,-2 12,-1zm46 -7c0,0 3,-3 7,-2 4,0 7,-2 8,-2 1,0 3,-1 5,1 2,3 4,3 1,4 -3,1 0,0 -5,0 -4,0 -8,0 -9,0 -1,0 -2,2 -5,1 -2,-1 -2,-3 -2,-3zm57 -1c1,1 3,3 4,2 2,-1 3,-1 4,0 1,0 2,1 2,0 0,-1 -1,-2 -2,-3 -2,-1 -1,0 -3,-1 -3,-1 -3,-3 -4,-1 -1,2 -2,1 -1,3 1,1 1,1 1,1zm156 59c0,0 2,4 2,3 1,-1 2,-1 2,-2 -1,-1 -1,-2 -1,-3 0,-1 0,-3 -2,-1 -1,1 -1,4 -1,4zm-419 9c9,-6 19,-15 24,-15 5,0 5,-4 14,-9 9,-5 79,-30 107,-31 12,0 18,-2 26,-3 3,0 7,3 11,2 13,-2 38,-8 42,-5 9,6 10,4 14,3 4,-1 5,-4 12,-3 7,1 14,5 22,10 9,4 17,6 22,7 5,2 30,13 50,26 20,13 41,28 47,31 8,5 21,18 12,28 -6,7 -9,6 -10,7 -2,2 3,7 -7,13 -8,5 -50,24 -91,29 -41,5 -66,10 -111,5 -44,-5 -63,-11 -96,-23 -33,-12 -65,-34 -68,-30 -4,5 47,28 52,31 0,0 34,14 49,18 14,4 52,11 63,13 12,2 26,0 30,2 4,2 10,6 2,8 -8,2 -30,7 -45,5 -16,-2 -24,-2 -31,-7 -7,-5 -8,-10 -13,-11 -10,-3 -49,-14 -66,-21 -27,-11 -40,-19 -55,-28 -16,-10 -20,-15 -17,-19 4,-4 8,-1 12,2 4,3 7,5 9,3 2,-2 -1,-4 -8,-10 -7,-6 -7,-1 -12,-3 -13,-6 0,-18 9,-24zm-101 -29c0,1 -1,4 1,8 2,4 3,7 7,9 4,2 7,4 7,0 0,-5 1,-6 -2,-7 -3,-2 -6,-3 -7,-4 -1,-2 -1,-1 -2,-4 -1,-2 0,-4 -2,-3 -1,1 -2,1 -2,2z"/>
  <path class="fil3" d="M1764 1384c7,-6 24,-32 25,-33 1,-1 9,-13 51,-21 42,-9 85,-26 141,-29 56,-3 94,3 97,3 2,0 40,2 55,9 19,9 37,20 48,28 11,9 20,11 24,15 5,4 8,14 14,21 4,6 14,12 16,14 1,1 2,5 4,8 2,3 3,3 4,2 4,-3 3,-4 5,-4 1,0 2,3 1,4 -1,2 -6,6 -4,8 2,2 11,8 15,10 10,6 8,5 9,5 1,0 2,-1 4,-1 2,0 5,-1 6,-1 1,0 1,0 1,4 -1,3 5,5 -3,6 -5,1 -7,5 -3,7 2,1 9,3 8,10 -2,7 6,6 3,12 -3,6 -9,5 -16,10 -7,5 -6,5 -10,12 -4,6 14,28 11,33 -1,2 -5,8 -10,2 0,0 -4,-6 -5,-9 -2,-3 -4,-9 -10,-11 -6,-2 -4,1 -7,0 -3,-1 -4,-2 -4,-3 -1,-1 1,-5 -4,-7 -4,-2 -7,0 -13,3 -5,2 -8,5 -10,10 -1,2 1,9 0,14 -1,5 -5,9 -7,11 -2,1 -7,1 -11,0 -4,-1 -9,-4 -15,-6 -6,-2 -6,-4 -11,0 -5,3 -3,5 -7,8 -5,4 -14,-1 -13,6 0,4 0,10 -3,10 -3,1 -3,-1 -7,-3 -4,-1 -14,3 -18,5 -4,2 -6,-2 -16,-1 0,0 -31,5 -37,5 -6,0 -21,0 -23,0 -2,0 -5,4 -3,9 2,5 5,1 10,4 1,1 4,1 7,2 5,2 10,5 5,5 -4,0 -10,-1 -15,-2 -3,-1 -8,-2 -11,-3 -10,-4 -15,-5 -33,-9 -19,-3 -31,-5 -39,-5 -8,0 -9,1 -12,-1 -3,-2 -1,-5 -4,-7 -3,-2 -6,-3 -8,-1 -2,1 -1,5 -7,5 -5,0 -13,-1 -17,-2 -19,-5 -34,-11 -55,-26 -4,-3 -20,-7 -28,-13 -4,-2 -23,-14 -39,-25 -5,-3 -18,-17 -23,-16 -4,1 -5,3 -11,10 -4,5 -4,-5 -17,11 -13,16 -21,22 -28,31 -7,9 -14,14 -11,22 3,8 4,9 -1,13 -4,5 -2,4 -7,1 -5,-3 -10,-1 -9,5 1,6 4,8 1,13 -4,5 -3,9 -2,14 0,5 2,4 -1,7 -2,2 -3,-5 -10,-11 -7,-6 -2,-9 -4,-13 -3,-4 -11,-8 -5,-12 6,-4 7,-6 7,-12 0,-6 -3,-10 -1,-15 2,-5 7,-7 3,-11 -4,-4 -8,2 -12,9 -5,10 -13,21 -13,31 0,8 -3,15 -13,12 -20,-7 -7,-13 4,-27 7,-10 17,-24 20,-29 4,-7 5,-21 12,-32 6,-8 17,-25 24,-35 9,-14 7,-9 6,-18 0,0 2,-7 6,-4 4,2 4,6 7,3 4,-3 5,-9 -6,-17 -23,-15 -32,-45 -51,-58 -2,-2 -11,-6 -12,-11 -2,-10 1,-21 -6,-28 -6,-7 -9,-12 -10,-16 -1,-4 -1,-10 3,-14 4,-4 6,-7 11,-9 10,-3 12,6 8,10 -2,2 -4,7 -2,12 4,7 10,7 11,22 0,7 5,7 6,11 1,4 -1,3 5,8 3,2 2,7 4,11 2,5 6,8 12,7 5,-1 2,-9 -5,-15 -7,-6 -10,-7 -11,-14 -1,-7 0,-11 -2,-11 -8,-2 -8,-11 -2,-9 2,1 2,-4 5,-2 7,5 9,1 6,-18 0,-3 0,-4 1,-6 1,-2 3,-3 5,-2 1,1 1,3 1,4 1,8 10,29 12,40 2,7 7,32 12,40 8,15 20,25 35,33 6,3 21,-7 27,-12zm336 182c0,0 -5,-4 1,-7 6,-3 4,-2 9,-3 5,-1 6,-2 10,-3 4,-1 5,-4 11,-4 6,0 8,-2 9,2 1,4 -1,2 0,6 1,4 4,5 0,5 -4,0 -1,-4 -11,-1 -10,3 -11,3 -19,6 -8,3 -10,0 -10,0zm75 -110c-1,0 -4,1 -5,2 -1,1 0,2 -2,3 -2,1 -3,0 -4,0 -1,0 -2,1 -2,2 0,1 0,1 0,3 0,1 0,3 2,5 2,1 4,2 5,2 1,0 2,-2 3,-3 1,-1 0,-2 1,-4 1,-2 3,-3 3,-4 1,-2 1,-4 0,-4 -1,0 -1,0 -1,0zm-16 -19c0,0 2,1 2,1 3,4 2,0 2,-1 0,-3 -2,-2 -3,-2 0,0 -3,1 -2,2zm-390 52c2,3 2,2 3,3 1,3 1,3 3,4 2,1 3,2 3,1 0,-2 1,-2 2,-3 1,-1 1,1 3,0 3,-3 0,-3 -3,-6 -4,-4 -4,-6 -9,-6 -1,0 -2,-1 -4,-1 -2,0 -2,1 -2,2 0,2 4,4 4,5zm-55 61c1,3 0,1 1,3 0,2 1,5 3,2 2,-2 2,-1 4,-1 2,0 2,0 3,-2 1,-1 0,-2 0,-4 0,-2 -1,-3 -3,-4 -2,-1 -2,-2 -5,-1 -1,0 -3,2 -3,2 -1,0 -2,1 -1,4zm-14 27c-4,2 -6,3 -8,3 -2,0 -2,-1 -5,1 -3,2 -6,4 -5,6 1,2 -1,1 1,5 2,5 -1,8 5,5 6,-3 2,-2 8,-4 6,-2 7,-5 7,-5 0,0 0,-1 0,-3 0,-2 1,2 0,-3 -1,-4 -2,-6 -3,-6 -1,0 -1,0 -1,0zm53 -93c-1,1 -1,2 0,2 1,1 3,1 3,-1 0,-3 3,-1 1,-3 -2,-2 -2,-2 -3,-2 -4,2 1,3 -1,4zm-3 -111c-3,2 1,2 1,3 0,1 0,2 1,3 1,1 2,2 3,2 1,0 3,-2 1,-4 -1,-2 0,-2 0,-2 0,-1 -1,-1 -1,-2 -1,-1 -1,-1 -3,-1 0,0 -1,0 -1,0 -2,-1 -1,1 -1,1zm-68 -112c-1,0 -1,-1 0,-2 0,-2 0,-3 1,-2 1,1 4,2 3,3 -1,1 0,1 -2,3 -2,2 0,-2 -2,-1zm0 15c2,1 2,2 3,2 1,0 2,-1 1,-2 0,-1 -1,-1 -2,-1 -1,0 -1,-1 -1,-1 0,0 0,-1 -1,0 -1,1 -1,1 0,2zm-43 -34c0,0 3,1 3,6 1,5 0,5 2,8 2,3 5,8 8,6 3,-2 5,-4 4,-7 -3,-6 2,-6 -2,-7 -2,-1 -7,0 -8,-8 -1,-7 2,-7 -1,-9 -3,-2 -1,-2 -6,-1 0,0 -2,1 -3,1 -2,1 -6,3 -5,5 1,4 7,6 7,6zm278 109c1,1 1,0 4,0 3,0 2,-1 4,0 3,1 5,0 5,-2 0,-2 -3,-4 -4,-4 -2,0 -3,1 -4,1 -1,0 -1,1 -4,1 -3,1 -2,3 -2,3 0,0 1,1 1,1zm39 -2c5,1 11,-3 25,-3 3,0 7,4 9,0 2,-4 -1,-5 -1,-8 0,-4 -5,0 -12,0 -8,0 -2,-1 -15,1 -6,1 -18,-1 -18,-1 -2,1 -2,2 -1,4 1,1 0,2 0,3 0,1 -2,2 1,4 2,1 4,-2 12,-1zm46 -7c0,0 3,-3 7,-2 4,0 7,-2 8,-2 1,0 3,-1 5,1 2,3 4,3 1,4 -3,1 0,0 -5,0 -4,0 -8,0 -9,0 -1,0 -2,2 -5,1 -2,-1 -2,-3 -2,-3zm57 -1c1,1 3,3 4,2 2,-1 3,-1 4,0 1,0 2,1 2,0 0,-1 -1,-2 -2,-3 -2,-1 -1,0 -3,-1 -3,-1 -3,-3 -4,-1 -1,2 -2,1 -1,3 1,1 1,1 1,1zm156 59c0,0 2,4 2,3 1,-1 2,-1 2,-2 -1,-1 -1,-2 -1,-3 0,-1 0,-3 -2,-1 -1,1 -1,4 -1,4zm-419 9c9,-6 19,-15 24,-15 5,0 5,-4 14,-9 9,-5 79,-30 107,-31 12,0 18,-2 26,-3 3,0 7,3 11,2 13,-2 38,-8 42,-5 9,6 10,4 14,3 4,-1 5,-4 12,-3 7,1 14,5 22,10 9,4 17,6 22,7 5,2 30,13 50,26 20,13 41,28 47,31 8,5 21,18 12,28 -6,7 -9,6 -10,7 -2,2 3,7 -7,13 -8,5 -50,24 -91,29 -41,5 -66,10 -111,5 -44,-5 -63,-11 -96,-23 -33,-12 -65,-34 -68,-30 -4,5 47,28 52,31 0,0 34,14 49,18 14,4 52,11 63,13 12,2 26,0 30,2 4,2 10,6 2,8 -8,2 -30,7 -45,5 -16,-2 -24,-2 -31,-7 -7,-5 -8,-10 -13,-11 -10,-3 -49,-14 -66,-21 -27,-11 -40,-19 -55,-28 -16,-10 -20,-15 -17,-19 4,-4 8,-1 12,2 4,3 7,5 9,3 2,-2 -1,-4 -8,-10 -7,-6 -7,-1 -12,-3 -13,-6 0,-18 9,-24zm-101 -29c0,1 -1,4 1,8 2,4 3,7 7,9 4,2 7,4 7,0 0,-5 1,-6 -2,-7 -3,-2 -6,-3 -7,-4 -1,-2 -1,-1 -2,-4 -1,-2 0,-4 -2,-3 -1,1 -2,1 -2,2z"/>
  <path class="fil3" d="M1208 1691c7,-6 24,-32 25,-33 1,-1 9,-13 51,-21 42,-9 85,-26 141,-29 56,-3 94,3 97,3 2,0 40,2 55,9 19,9 37,20 48,28 11,9 20,11 24,15 5,4 8,14 14,21 4,6 14,12 16,14 1,1 2,5 4,8 2,3 3,3 4,2 4,-3 3,-4 5,-4 1,0 2,3 1,4 -1,2 -6,6 -4,8 2,2 11,8 15,10 10,6 8,5 9,5 1,0 2,-1 4,-1 2,0 5,-1 6,-1 1,0 1,0 1,4 -1,3 5,5 -3,6 -5,1 -7,5 -3,7 2,1 9,3 8,10 -2,7 6,6 3,12 -3,6 -9,5 -16,10 -7,5 -6,5 -10,12 -4,6 14,28 11,33 -1,2 -5,8 -10,2 0,0 -4,-6 -5,-9 -2,-3 -4,-9 -10,-11 -6,-2 -4,1 -7,0 -3,-1 -4,-2 -4,-3 -1,-1 1,-5 -4,-7 -4,-2 -7,0 -13,3 -5,2 -8,5 -10,10 -1,2 1,9 0,14 -1,5 -5,9 -7,11 -2,1 -7,1 -11,0 -4,-1 -9,-4 -15,-6 -6,-2 -6,-4 -11,0 -5,3 -3,5 -7,8 -5,4 -14,-1 -13,6 0,4 0,10 -3,10 -3,1 -3,-1 -7,-3 -4,-1 -14,3 -18,5 -4,2 -6,-2 -16,-1 0,0 -31,5 -37,5 -6,0 -21,0 -23,0 -2,0 -5,4 -3,9 2,5 5,1 10,4 1,1 4,1 7,2 5,2 10,5 5,5 -4,0 -10,-1 -15,-2 -3,-1 -8,-2 -11,-3 -10,-4 -15,-5 -33,-9 -19,-3 -31,-5 -39,-5 -8,0 -9,1 -12,-1 -3,-2 -1,-5 -4,-7 -3,-2 -6,-3 -8,-1 -2,1 -1,5 -7,5 -5,0 -13,-1 -17,-2 -19,-5 -34,-11 -55,-26 -4,-3 -20,-7 -28,-13 -4,-2 -23,-14 -39,-25 -5,-3 -18,-17 -23,-16 -4,1 -5,3 -11,10 -4,5 -4,-5 -17,11 -13,16 -21,22 -28,31 -7,9 -14,14 -11,22 3,8 4,9 -1,13 -4,5 -2,4 -7,1 -5,-3 -10,-1 -9,5 1,6 4,8 1,13 -4,5 -3,9 -2,14 0,5 2,4 -1,7 -2,2 -3,-5 -10,-11 -7,-6 -2,-9 -4,-13 -3,-4 -11,-8 -5,-12 6,-4 7,-6 7,-12 0,-6 -3,-10 -1,-15 2,-5 7,-7 3,-11 -4,-4 -8,2 -12,9 -5,10 -13,21 -13,31 0,8 -3,15 -13,12 -20,-7 -7,-13 4,-27 7,-10 17,-24 20,-29 4,-7 5,-21 12,-32 6,-8 17,-25 24,-35 9,-14 7,-9 6,-18 0,0 2,-7 6,-4 4,2 4,6 7,3 4,-3 5,-9 -6,-17 -23,-15 -32,-45 -51,-58 -2,-2 -11,-6 -12,-11 -2,-10 1,-21 -6,-28 -6,-7 -9,-12 -10,-16 -1,-4 -1,-10 3,-14 4,-4 6,-7 11,-9 10,-3 12,6 8,10 -2,2 -4,7 -2,12 4,7 10,7 11,22 0,7 5,7 6,11 1,4 -1,3 5,8 3,2 2,7 4,11 2,5 6,8 12,7 5,-1 2,-9 -5,-15 -7,-6 -10,-7 -11,-14 -1,-7 0,-11 -2,-11 -8,-2 -8,-11 -2,-9 2,1 2,-4 5,-2 7,5 9,1 6,-18 0,-3 0,-4 1,-6 1,-2 3,-3 5,-2 1,1 1,3 1,4 1,8 10,29 12,40 2,7 7,32 12,40 8,15 20,25 35,33 6,3 21,-7 27,-12zm336 182c0,0 -5,-4 1,-7 6,-3 4,-2 9,-3 5,-1 6,-2 10,-3 4,-1 5,-4 11,-4 6,0 8,-2 9,2 1,4 -1,2 0,6 1,4 4,5 0,5 -4,0 -1,-4 -11,-1 -10,3 -11,3 -19,6 -8,3 -10,0 -10,0zm75 -110c-1,0 -4,1 -5,2 -1,1 0,2 -2,3 -2,1 -3,0 -4,0 -1,0 -2,1 -2,2 0,1 0,1 0,3 0,1 0,3 2,5 2,1 4,2 5,2 1,0 2,-2 3,-3 1,-1 0,-2 1,-4 1,-2 3,-3 3,-4 1,-2 1,-4 0,-4 -1,0 -1,0 -1,0zm-16 -19c0,0 2,1 2,1 3,4 2,0 2,-1 0,-3 -2,-2 -3,-2 0,0 -3,1 -2,2zm-390 52c2,3 2,2 3,3 1,3 1,3 3,4 2,1 3,2 3,1 0,-2 1,-2 2,-3 1,-1 1,1 3,0 3,-3 0,-3 -3,-6 -4,-4 -4,-6 -9,-6 -1,0 -2,-1 -4,-1 -2,0 -2,1 -2,2 0,2 4,4 4,5zm-55 61c1,3 0,1 1,3 0,2 1,5 3,2 2,-2 2,-1 4,-1 2,0 2,0 3,-2 1,-1 0,-2 0,-4 0,-2 -1,-3 -3,-4 -2,-1 -2,-2 -5,-1 -1,0 -3,2 -3,2 -1,0 -2,1 -1,4zm-14 27c-4,2 -6,3 -8,3 -2,0 -2,-1 -5,1 -3,2 -6,4 -5,6 1,2 -1,1 1,5 2,5 -1,8 5,5 6,-3 2,-2 8,-4 6,-2 7,-5 7,-5 0,0 0,-1 0,-3 0,-2 1,2 0,-3 -1,-4 -2,-6 -3,-6 -1,0 -1,0 -1,0zm53 -93c-1,1 -1,2 0,2 1,1 3,1 3,-1 0,-3 3,-1 1,-3 -2,-2 -2,-2 -3,-2 -4,2 1,3 -1,4zm-3 -111c-3,2 1,2 1,3 0,1 0,2 1,3 1,1 2,2 3,2 1,0 3,-2 1,-4 -1,-2 0,-2 0,-2 0,-1 -1,-1 -1,-2 -1,-1 -1,-1 -3,-1 0,0 -1,0 -1,0 -2,-1 -1,1 -1,1zm-68 -112c-1,0 -1,-1 0,-2 0,-2 0,-3 1,-2 1,1 4,2 3,3 -1,1 0,1 -2,3 -2,2 0,-2 -2,-1zm0 15c2,1 2,2 3,2 1,0 2,-1 1,-2 0,-1 -1,-1 -2,-1 -1,0 -1,-1 -1,-1 0,0 0,-1 -1,0 -1,1 -1,1 0,2zm-43 -34c0,0 3,1 3,6 1,5 0,5 2,8 2,3 5,8 8,6 3,-2 5,-4 4,-7 -3,-6 2,-6 -2,-7 -2,-1 -7,0 -8,-8 -1,-7 2,-7 -1,-9 -3,-2 -1,-2 -6,-1 0,0 -2,1 -3,1 -2,1 -6,3 -5,5 1,4 7,6 7,6zm278 109c1,1 1,0 4,0 3,0 2,-1 4,0 3,1 5,0 5,-2 0,-2 -3,-4 -4,-4 -2,0 -3,1 -4,1 -1,0 -1,1 -4,1 -3,1 -2,3 -2,3 0,0 1,1 1,1zm39 -2c5,1 11,-3 25,-3 3,0 7,4 9,0 2,-4 -1,-5 -1,-8 0,-4 -5,0 -12,0 -8,0 -2,-1 -15,1 -6,1 -18,-1 -18,-1 -2,1 -2,2 -1,4 1,1 0,2 0,3 0,1 -2,2 1,4 2,1 4,-2 12,-1zm46 -7c0,0 3,-3 7,-2 4,0 7,-2 8,-2 1,0 3,-1 5,1 2,3 4,3 1,4 -3,1 0,0 -5,0 -4,0 -8,0 -9,0 -1,0 -2,2 -5,1 -2,-1 -2,-3 -2,-3zm57 -1c1,1 3,3 4,2 2,-1 3,-1 4,0 1,0 2,1 2,0 0,-1 -1,-2 -2,-3 -2,-1 -1,0 -3,-1 -3,-1 -3,-3 -4,-1 -1,2 -2,1 -1,3 1,1 1,1 1,1zm156 59c0,0 2,4 2,3 1,-1 2,-1 2,-2 -1,-1 -1,-2 -1,-3 0,-1 0,-3 -2,-1 -1,1 -1,4 -1,4zm-419 9c9,-6 19,-15 24,-15 5,0 5,-4 14,-9 9,-5 79,-30 107,-31 12,0 18,-2 26,-3 3,0 7,3 11,2 13,-2 38,-8 42,-5 9,6 10,4 14,3 4,-1 5,-4 12,-3 7,1 14,5 22,10 9,4 17,6 22,7 5,2 30,13 50,26 20,13 41,28 47,31 8,5 21,18 12,28 -6,7 -9,6 -10,7 -2,2 3,7 -7,13 -8,5 -50,24 -91,29 -41,5 -66,10 -111,5 -44,-5 -63,-11 -96,-23 -33,-12 -65,-34 -68,-30 -4,5 47,28 52,31 0,0 34,14 49,18 14,4 52,11 63,13 12,2 26,0 30,2 4,2 10,6 2,8 -8,2 -30,7 -45,5 -16,-2 -24,-2 -31,-7 -7,-5 -8,-10 -13,-11 -10,-3 -49,-14 -66,-21 -27,-11 -40,-19 -55,-28 -16,-10 -20,-15 -17,-19 4,-4 8,-1 12,2 4,3 7,5 9,3 2,-2 -1,-4 -8,-10 -7,-6 -7,-1 -12,-3 -13,-6 0,-18 9,-24zm-101 -29c0,1 -1,4 1,8 2,4 3,7 7,9 4,2 7,4 7,0 0,-5 1,-6 -2,-7 -3,-2 -6,-3 -7,-4 -1,-2 -1,-1 -2,-4 -1,-2 0,-4 -2,-3 -1,1 -2,1 -2,2z"/>
  <path class="fil4" d="M1234 1006c0,0 41,-41 87,-73 45,-32 95,-59 95,-59 0,0 16,49 4,109 -11,61 -44,120 -44,120 0,0 -43,-23 -84,-54 -41,-31 -58,-43 -58,-43z"/>
  <path class="fil3" d="M1421 974c0,0 17,16 21,40 5,24 2,54 2,54 20,-31 31,-53 46,-85 0,0 -3,-13 -24,-48 -22,-35 -51,-61 -51,-61 6,14 12,65 6,100z"/>
  <path class="fil5" d="M1494 848c0,0 21,74 -3,135 -13,33 -32,74 -84,131l48 18c122,-101 143,-172 153,-297 -41,0 -78,3 -113,13z"/>
  <path class="fil3" d="M1607 835c-2,27 -6,60 -12,88 -8,38 -21,66 -21,66 0,0 10,29 3,53 -8,24 -30,59 -30,59 0,0 27,-17 50,-41 23,-23 53,-64 53,-64 0,0 -4,-39 -9,-68 -5,-29 -33,-92 -33,-92z"/>
  <path class="fil6" d="M1649 996c-32,42 -56,69 -103,104 -37,28 -62,41 -62,41 18,5 71,11 93,11 0,0 84,-49 127,-105 47,-62 77,-96 85,-169 -9,-8 -103,-37 -102,-33 12,58 -24,131 -38,150z"/>
  <path class="fil3" d="M1742 997c0,0 -6,53 -19,74 -12,19 -33,44 -55,59 35,-17 131,-87 148,-115 2,-3 1,-7 2,-10 2,-17 -1,-43 -6,-66 -6,-26 -22,-60 -22,-60 0,0 -5,34 -14,59 -9,25 -33,59 -33,59z"/>
  <path class="fil7" d="M1639 1148l30 -17c0,0 48,-28 81,-54 33,-26 50,-41 66,-59 11,-13 30,-42 34,-53 9,-22 16,-46 17,-52 21,8 53,22 74,29 0,0 -11,20 -35,51 -24,31 -49,54 -79,77 -30,23 -65,45 -102,57 -29,9 -55,17 -87,22z"/>
  <path class="fil3" d="M1940 911c-11,-9 -38,-49 -39,-51 -2,-2 -15,-20 -79,-33 -65,-13 -131,-40 -219,-45 -87,-5 -146,5 -150,4 -4,0 -62,3 -85,14 -29,14 -58,30 -75,44 -17,14 -31,17 -38,23 -7,6 -13,22 -21,32 -7,9 -21,18 -26,21 -2,2 -4,8 -6,12 -3,5 -4,5 -6,3 -6,-5 -5,-7 -7,-7 -2,0 -4,4 -2,7 2,3 10,10 6,12 -3,2 -17,12 -23,15 -15,10 -12,8 -14,8 -2,1 -3,-1 -6,-2 -3,-1 -8,-1 -10,-1 -2,0 -2,0 -1,7 1,5 -7,8 5,10 8,1 11,7 5,11 -3,2 -14,5 -12,16 3,11 -9,10 -5,19 5,10 13,7 25,15 11,8 9,8 15,18 5,9 -22,44 -17,51 2,3 8,12 16,2 1,-1 5,-9 8,-14 3,-5 6,-14 16,-17 10,-3 6,1 11,0 4,-1 6,-3 7,-5 1,-2 -1,-8 6,-11 7,-3 11,0 20,4 8,3 12,7 15,16 1,3 -2,14 0,22 2,8 8,14 12,16 4,2 11,2 17,0 7,-2 14,-6 23,-9 10,-2 10,-5 17,0 7,5 5,8 11,13 8,6 21,-1 20,9 -1,7 0,15 5,16 5,1 5,-2 11,-5 6,-2 22,5 28,7 5,2 9,-3 26,-2 0,0 48,8 57,8 9,0 32,0 36,0 4,0 8,6 5,13 -3,8 -8,2 -15,6 -2,1 -7,1 -10,3 -8,3 -15,8 -7,8 7,1 15,-1 24,-3 5,-1 12,-3 17,-5 16,-6 23,-8 52,-13 29,-5 47,-7 60,-8 13,-1 14,2 18,-1 4,-3 1,-8 7,-11 5,-3 9,-4 13,-2 4,2 2,8 10,8 8,0 20,-2 27,-3 30,-8 53,-17 85,-40 7,-5 31,-11 44,-20 5,-4 36,-22 60,-39 7,-5 28,-26 35,-24 6,1 8,4 17,15 6,8 6,-7 26,17 20,24 33,35 44,48 11,13 22,22 17,35 -5,13 -6,13 1,21 7,7 4,7 11,2 8,-5 15,-1 13,8 -2,9 -7,12 -1,20 6,8 4,14 4,22 0,8 -3,7 1,10 4,3 4,-8 15,-17 11,-10 3,-14 7,-20 4,-6 17,-13 7,-19 -10,-6 -11,-9 -12,-19 0,-10 5,-15 1,-24 -3,-8 -11,-11 -5,-17 6,-5 12,3 18,15 8,16 20,33 20,48 0,13 5,23 20,18 31,-10 11,-19 -6,-41 -12,-15 -26,-36 -31,-45 -6,-11 -8,-33 -19,-49 -9,-13 -27,-38 -37,-54 -14,-22 -11,-14 -10,-27 0,0 -3,-10 -9,-7 -6,4 -6,9 -11,5 -6,-4 -8,-15 10,-26 35,-23 50,-70 80,-90 4,-2 17,-9 18,-17 3,-15 -2,-32 9,-44 10,-11 15,-19 16,-25 2,-7 2,-15 -4,-22 -6,-7 -9,-11 -17,-14 -16,-5 -18,10 -13,16 3,3 6,11 3,18 -6,11 -16,11 -16,34 0,10 -7,10 -9,16 -1,6 2,5 -8,12 -4,3 -3,10 -7,17 -4,8 -10,12 -18,10 -8,-2 -3,-14 8,-22 10,-9 16,-11 16,-22 1,-11 0,-17 4,-18 12,-3 12,-17 3,-14 -2,1 -4,-6 -7,-4 -10,8 -14,2 -10,-28 1,-5 0,-6 -2,-9 -2,-3 -5,-5 -7,-4 -2,1 -2,4 -2,7 -1,12 -15,45 -19,62 -3,11 -11,49 -18,62 -12,23 -31,39 -54,51 -9,5 -33,-11 -41,-18zm-521 282c0,0 7,-7 -2,-11 -9,-4 -7,-3 -14,-5 -7,-2 -10,-3 -16,-5 -6,-2 -7,-6 -17,-6 -9,0 -12,-3 -14,3 -1,5 2,3 1,9 -1,6 -6,8 0,7 6,-1 1,-6 17,-2 15,4 17,5 29,9 12,4 16,1 16,1zm-116 -170c1,-1 7,1 8,3 1,1 0,3 3,4 3,1 4,0 6,0 2,0 4,1 4,3 0,1 0,2 0,4 0,2 0,5 -3,7 -2,2 -6,3 -8,3 -2,-1 -4,-3 -5,-4 -1,-1 0,-3 -2,-6 -2,-3 -4,-4 -5,-7 -1,-3 -1,-6 1,-7 2,-1 2,-1 2,-1zm25 -30c-1,0 -3,1 -4,2 -5,6 -3,0 -3,-2 -1,-5 4,-4 5,-3 0,0 5,2 2,3zm604 81c-2,4 -4,3 -4,5 -2,4 -1,4 -4,6 -3,2 -4,4 -5,2 -1,-2 -1,-3 -2,-4 -2,-1 -2,2 -5,0 -5,-4 1,-4 4,-9 6,-7 6,-9 14,-9 2,0 3,-2 6,-2 3,0 3,1 3,3 0,3 -6,6 -7,8zm85 94c-2,4 -1,1 -1,4 -1,3 -2,8 -5,4 -3,-4 -3,-1 -6,-1 -3,0 -3,0 -4,-3 -1,-2 0,-3 0,-6 0,-3 1,-4 4,-6 3,-1 2,-4 7,-2 1,0 4,3 4,3 2,1 2,2 1,6zm22 42c6,3 9,5 12,5 3,0 3,-1 8,2 5,3 9,6 8,9 -1,3 1,1 -2,8 -3,7 1,13 -8,8 -9,-5 -3,-3 -13,-6 -10,-3 -11,-8 -11,-8 0,0 -1,-2 0,-4 0,-3 -1,2 1,-5 2,-7 2,-9 4,-9 2,0 2,0 2,0zm-82 -144c2,2 2,3 1,4 -1,1 -5,1 -5,-2 0,-4 -4,-2 -1,-5 2,-2 3,-3 4,-2 6,4 -1,4 1,6zm5 -171c4,3 -1,4 -1,5 -1,2 0,3 -1,4 -1,1 -3,4 -5,3 -2,-1 -4,-3 -2,-5 2,-3 0,-3 0,-4 0,-1 1,-2 2,-3 1,-1 1,-1 4,-2 0,0 1,0 1,0 3,-1 1,1 2,2zm105 -173c1,0 1,-2 1,-3 -1,-2 0,-4 -2,-3 -2,1 -6,3 -5,4 1,2 -1,2 2,4 3,3 0,-2 4,-2zm0 23c-2,1 -4,3 -4,3 -1,0 -3,-1 -2,-3 1,-2 1,-1 3,-1 1,0 1,-1 2,-1 1,-1 1,-1 2,0 1,1 2,2 0,2zm67 -53c0,0 -4,2 -5,10 -1,8 0,8 -3,13 -3,4 -8,12 -12,9 -5,-3 -8,-6 -6,-10 5,-9 -3,-9 3,-12 4,-2 10,0 12,-13 1,-11 -3,-11 1,-14 5,-3 2,-4 9,-2 0,0 3,2 4,2 4,2 10,5 8,8 -2,6 -10,9 -10,9zm-431 168c-2,1 -2,0 -6,-1 -4,0 -2,-1 -7,1 -4,1 -8,0 -8,-3 0,-3 5,-6 7,-6 2,0 4,1 6,2 2,0 1,1 6,2 5,1 4,4 3,5 -1,0 -2,1 -2,1zm-60 -3c-7,1 -17,-4 -38,-5 -4,0 -11,6 -14,1 -3,-6 2,-7 2,-13 1,-6 7,-1 19,0 12,1 3,-1 23,2 9,1 28,-1 28,-1 3,1 4,3 1,7 -2,2 -1,3 0,5 1,2 3,3 -2,7 -3,2 -6,-3 -19,-2zm-71 -11c0,0 -4,-4 -10,-4 -6,0 -11,-2 -12,-3 -1,0 -4,-2 -7,2 -3,5 -6,5 -1,6 5,1 0,1 7,1 7,0 12,0 14,1 2,1 4,3 7,1 3,-2 3,-5 3,-5zm-89 -2c-2,2 -4,4 -6,3 -2,-1 -5,-1 -6,-1 -1,1 -3,1 -3,0 0,-2 1,-3 4,-4 2,-1 1,0 5,-2 4,-2 5,-4 6,-2 1,3 3,2 2,4 -1,2 -1,2 -1,2zm-242 91c0,0 -2,6 -4,4 -1,-2 -4,-2 -3,-4 1,-2 2,-3 2,-5 0,-2 0,-4 3,-2 2,2 2,6 2,6zm649 15c-14,-10 -30,-23 -38,-24 -8,0 -8,-6 -22,-14 -14,-8 -122,-47 -166,-48 -18,0 -27,-3 -40,-4 -4,0 -11,4 -18,3 -19,-3 -58,-12 -65,-8 -15,9 -16,6 -22,5 -7,-1 -8,-6 -19,-5 -11,2 -21,8 -35,15 -13,7 -26,9 -34,11 -7,3 -46,21 -77,41 -31,20 -64,43 -73,49 -12,8 -32,28 -18,44 10,11 14,9 16,10 3,3 -4,10 10,20 12,8 77,37 141,44 63,7 103,16 171,8 69,-8 97,-16 149,-35 52,-19 100,-52 105,-47 6,7 -73,43 -80,47 0,0 -53,22 -75,28 -22,6 -80,17 -98,20 -18,3 -40,0 -47,4 -7,3 -15,9 -3,12 12,3 46,11 70,8 24,-3 37,-3 48,-10 11,-7 13,-15 20,-17 16,-5 76,-21 103,-33 41,-17 62,-30 85,-44 24,-16 32,-23 26,-30 -6,-7 -12,-1 -18,3 -6,4 -11,8 -14,5 -2,-3 2,-6 12,-16 11,-10 10,-1 18,-4 21,-9 0,-28 -14,-37zm156 -45c1,2 2,7 -1,12 -3,6 -4,11 -10,14 -6,3 -12,7 -11,0 0,-7 -2,-9 2,-11 4,-3 10,-4 12,-7 2,-2 1,-2 3,-6 1,-3 0,-7 3,-5 1,1 3,2 4,3z"/>
  <path class="fil8" d="M500 2674l0 -80c0,-6 0,-12 -1,-16 -1,-4 -2,-9 -4,-13l23 0 0 0 18 0c24,0 43,6 58,19 15,13 22,30 22,50 0,21 -7,38 -21,51 -14,12 -33,19 -57,19l-20 0 0 0 -23 0c2,-4 3,-9 4,-13 1,-4 1,-10 1,-16zm37 2l0 0 2 0c12,0 21,-4 28,-11 7,-8 10,-18 10,-31 0,-14 -4,-25 -11,-34 -7,-8 -17,-12 -29,-12l0 0 0 88z"/>
  <path class="fil8" d="M710 2706c-14,0 -26,-4 -35,-13 -9,-9 -14,-20 -14,-33 0,-16 5,-29 15,-39 10,-10 23,-15 39,-15 14,0 26,4 35,13 9,9 14,20 14,33 0,16 -5,29 -15,39 -10,10 -23,15 -39,15zm9 -19c3,-3 5,-7 7,-11 2,-5 3,-9 3,-14 0,-9 -3,-16 -8,-23 -5,-7 -12,-11 -19,-13 -2,2 -4,6 -6,10 -1,5 -2,10 -2,15 0,9 2,17 7,23 5,7 10,11 18,13z"/>
  <path class="fil8" d="M941 2674l0 -85 0 0c-8,0 -14,1 -19,1 -9,1 -17,3 -23,5l5 -15 5 -15 0 0 50 0 0 0 59 0 0 0 -4 15 -4 15c-4,-1 -10,-3 -18,-4 -5,-1 -9,-1 -14,-1l0 0 0 85c0,6 0,11 1,15 1,4 2,9 4,14l-24 0 -24 0c2,-5 3,-9 4,-14 1,-4 1,-10 1,-15z"/>
  <path class="fil8" d="M1059 2674l0 -75c0,-7 0,-12 -1,-16 -1,-4 -2,-9 -4,-13l22 -2 22 -2c-2,4 -3,9 -4,15 -1,6 -1,15 -1,26l0 19 0 0 0 0 18 -18c3,-1 6,-1 8,-1 9,0 16,2 21,7 5,5 7,12 7,21l0 40c0,7 0,12 1,16 1,4 2,9 4,13l-21 0 -21 0c2,-4 3,-8 4,-13 1,-4 1,-10 1,-16l0 -30c0,-4 -1,-8 -2,-10 -2,-2 -4,-4 -7,-4 -5,0 -9,2 -12,4l0 0 0 39c0,7 0,12 1,16 1,4 2,9 4,13l-21 0 -21 0c2,-4 3,-8 4,-13 1,-4 1,-10 1,-16z"/>
  <path class="fil8" d="M1200 2674l0 -38c0,-7 0,-12 -1,-16 -1,-4 -2,-9 -4,-13l22 0 22 0c-2,4 -3,9 -4,15 -1,6 -1,15 -1,26l0 26c0,7 0,12 1,16 1,4 2,9 4,13l-21 0 -21 0c2,-4 3,-8 4,-13 1,-4 1,-10 1,-16zm17 -116c6,0 10,2 14,6 4,4 6,9 6,14 0,6 -2,10 -6,14 -4,4 -9,6 -14,6 -6,0 -10,-2 -14,-6 -4,-4 -6,-9 -6,-14 0,-6 2,-10 6,-14 4,-4 9,-6 14,-6z"/>
  <path class="fil8" d="M1287 2674l0 -38c0,-7 0,-12 -1,-16 -1,-4 -2,-9 -4,-13l19 0 19 0 0 0 0 19 0 0 0 0 18 -19c2,-1 5,-1 8,-1 9,0 16,2 21,7 5,5 7,12 7,21l0 40c0,7 0,12 1,16 1,4 2,9 4,13l-21 0 -21 0c2,-4 3,-8 4,-13 1,-4 1,-10 1,-16l0 -29c0,-5 -1,-8 -3,-11 -2,-2 -5,-4 -8,-4 -4,0 -7,1 -10,3l0 0 0 41c0,7 0,12 1,16 1,4 2,9 4,13l-21 0 -21 0c2,-4 3,-8 4,-13 1,-4 1,-10 1,-16z"/>
  <path class="fil8" d="M1460 2676c0,1 1,1 3,2 2,1 5,1 8,1 13,0 23,2 30,5 6,4 9,9 9,17 0,11 -4,20 -11,26 -7,6 -18,9 -33,9 -14,0 -25,-2 -33,-5 -8,-3 -11,-8 -11,-15 0,-3 1,-6 4,-9 2,-4 5,-7 9,-9l0 0 -2 0c-5,-1 -8,-4 -8,-8l0 -8 15 -13 0 0c-2,-1 -3,-2 -5,-3 -7,-6 -11,-13 -11,-22 0,-11 4,-20 11,-27 8,-7 18,-10 30,-10 9,0 16,2 22,6l0 0 18 0c3,0 5,0 8,0 3,0 4,-1 6,-1l-4 21c-1,0 -5,0 -13,0l0 0 0 0c1,3 2,7 2,11 0,9 -4,16 -12,22 -8,6 -18,8 -30,8l-1 0 0 0c-1,0 -1,1 -2,2 0,1 -1,1 -1,2zm4 -53c-3,0 -6,1 -8,4 -2,3 -3,6 -3,10 0,5 1,10 4,13 2,4 6,5 9,5 3,0 6,-1 8,-4 2,-3 3,-6 3,-10 0,-6 -1,-10 -4,-14 -2,-4 -5,-5 -9,-5zm-14 82c0,4 2,7 5,9 3,2 8,3 14,3 5,0 8,-1 11,-2 2,-1 4,-3 4,-6 0,-3 -1,-6 -4,-7 -3,-1 -8,-2 -14,-2l-14 0 0 0c0,0 0,2 0,5z"/>
  <path class="fil8" d="M1621 2633c-3,-2 -6,-4 -9,-6 -4,-1 -7,-2 -11,-2 -2,0 -4,1 -6,2 -1,1 -2,3 -2,4 0,2 1,4 3,6 2,2 5,5 10,8 7,5 11,10 15,15 3,5 5,9 5,15 0,9 -3,16 -10,22 -7,6 -16,9 -26,9 -6,0 -11,0 -15,-1 -4,-1 -9,-2 -16,-3l0 -26c4,4 8,6 12,8 4,2 7,2 11,2 3,0 6,-1 8,-2 2,-1 3,-2 3,-4 0,-3 -1,-5 -3,-8 -2,-2 -5,-6 -11,-10 -6,-5 -11,-9 -14,-14 -3,-4 -4,-9 -4,-13 0,-9 3,-17 10,-22 7,-6 16,-9 27,-9 5,0 9,0 12,1 3,1 8,2 13,3l0 23z"/>
  <path class="fil8" d="M1805 2642l0 0 -27 -48c-4,-8 -8,-14 -11,-18 -3,-4 -6,-8 -9,-11l23 0 23 0c0,2 1,4 1,6 1,2 1,4 3,6l16 33 0 0 18 -32c1,-2 2,-4 3,-6 1,-2 1,-4 2,-7l21 0 21 0c-3,3 -6,6 -9,11 -3,4 -7,11 -12,19l-26 46 0 0 0 35c0,6 0,12 1,16 1,4 2,9 4,13l-23 0 -23 0c2,-4 3,-9 4,-13 1,-4 1,-10 1,-16l0 -32z"/>
  <path class="fil8" d="M1970 2706c-14,0 -26,-4 -35,-13 -9,-9 -14,-20 -14,-33 0,-16 5,-29 15,-39 10,-10 23,-15 39,-15 14,0 26,4 35,13 9,9 14,20 14,33 0,16 -5,29 -15,39 -10,10 -23,15 -39,15zm9 -19c3,-3 5,-7 7,-11 2,-5 3,-9 3,-14 0,-9 -3,-16 -8,-23 -5,-7 -12,-11 -19,-13 -2,2 -4,6 -6,10 -1,5 -2,10 -2,15 0,9 2,17 7,23 5,7 10,11 18,13z"/>
  <path class="fil8" d="M2104 2648l0 22c0,4 1,8 3,10 2,2 4,3 8,3 4,0 7,-1 10,-4l0 0 0 -42c0,-7 0,-12 -1,-17 -1,-4 -2,-9 -4,-13l22 0 22 0c-2,4 -3,8 -4,11 -1,4 -1,8 -1,13l0 49c0,4 0,8 1,12 1,3 2,7 4,11l-19 0 -19 0 0 0 0 -11 0 0 0 0 -16 13 -5 0c-10,0 -18,-3 -24,-8 -6,-6 -8,-13 -8,-24l0 -49c0,-2 0,-5 -1,-7 -1,-3 -2,-6 -4,-10l22 0 22 0c-2,4 -3,9 -4,15 -1,6 -1,15 -1,26z"/>
  <path class="fil8" d="M2314 2704c2,-4 3,-9 4,-13 1,-4 1,-10 1,-16l0 -80c0,-6 0,-12 -1,-16 -1,-4 -2,-9 -4,-13l23 0 23 0c-2,4 -3,9 -4,13 -1,4 -1,10 -1,16l0 85 0 0c8,0 14,-1 20,-2 10,-2 19,-5 28,-10l-8 19 -8 19 0 0 -33 0 0 0 -42 0z"/>
  <path class="fil8" d="M2450 2674l0 -38c0,-7 0,-12 -1,-16 -1,-4 -2,-9 -4,-13l22 0 22 0c-2,4 -3,9 -4,15 -1,6 -1,15 -1,26l0 26c0,7 0,12 1,16 1,4 2,9 4,13l-21 0 -21 0c2,-4 3,-8 4,-13 1,-4 1,-10 1,-16zm17 -116c6,0 10,2 14,6 4,4 6,9 6,14 0,6 -2,10 -6,14 -4,4 -9,6 -14,6 -6,0 -10,-2 -14,-6 -4,-4 -6,-9 -6,-14 0,-6 2,-10 6,-14 4,-4 9,-6 14,-6z"/>
  <path class="fil8" d="M2571 2674c0,7 0,12 1,16 1,4 2,9 4,13l-21 0 -21 0c2,-4 3,-8 4,-13 1,-4 1,-10 1,-17l0 -75c0,-7 0,-12 -1,-16 -1,-4 -2,-9 -4,-13l22 -2 22 -2c-2,4 -3,9 -4,15 -1,6 -1,15 -1,26l0 38 0 0 15 -20c2,-3 4,-6 5,-9 1,-3 2,-6 2,-9l22 0 22 0c-2,1 -6,4 -11,10 -5,6 -13,15 -24,28l-5 5 0 0 12 15c11,13 19,23 24,29 5,6 8,9 9,9l-22 0 -22 0c-1,-2 -2,-4 -3,-6 -1,-1 -1,-2 -2,-3l-23 -31 0 0 0 11z"/>
  <path class="fil8" d="M2732 2706c-16,0 -29,-4 -39,-13 -9,-9 -14,-21 -14,-37 0,-15 4,-27 13,-36 8,-9 19,-14 32,-14l0 0c13,0 23,4 30,12 7,8 11,19 11,33 0,4 0,8 -1,11l0 0 -51 0 0 0c1,5 3,9 6,13 5,6 12,9 21,9 4,0 9,-1 13,-2 4,-1 9,-3 12,-6l-12 28c-5,1 -9,1 -12,2 -3,0 -5,0 -9,0zm3 -63l0 0 0 -3c0,-5 -1,-8 -3,-11 -2,-2 -5,-4 -9,-4 -4,0 -7,2 -9,6 -2,3 -3,7 -3,12l0 0 24 0z"/>
 </g>
</svg>
